<?xml version="1.0" encoding="utf-8"?>
<svg xmlns="http://www.w3.org/2000/svg" xmlns:xlink="http://www.w3.org/1999/xlink" style="margin: auto; background: rgb(255, 255, 255); display: block; z-index: 1; position: relative; shape-rendering: auto;" width="1900" height="910" preserveAspectRatio="xMidYMid" viewBox="0 0 1900 910">
<g transform="translate(950,455) scale(1,1) translate(-950,-455)"><g transform="translate(-100 656.3733044258995) rotate(0)">
  <animateTransform attributeName="transform" type="translate" keyTimes="0;1" values="-100 656.3733044258995;1900 656.3733044258995" dur="142.85714285714286s" repeatCount="indefinite" begin="-37.4179882062704s"></animateTransform>
  <path d="M84.717,33.597c0.791-2.503,1.186-5.138,1.186-7.773C85.903,11.594,74.308,0,60.079,0 c-9.881,0-18.445,5.534-22.793,13.702c-1.581-0.527-3.426-0.791-5.138-0.791c-9.486,0-17.128,7.642-17.128,17.128 c0,1.186,0.132,2.372,0.395,3.426C6.719,34.783,0,42.424,0,51.515C0,61.66,8.169,69.829,18.314,69.829h63.373 C91.831,69.829,100,61.66,100,51.515C99.868,42.556,93.281,35.046,84.717,33.597z" fill="#0051a2" transform="scale(0.5)"></path>
</g><g transform="translate(-100 264.85888837292055) rotate(0)">
  <animateTransform attributeName="transform" type="translate" keyTimes="0;1" values="-100 264.85888837292055;1900 264.85888837292055" dur="142.85714285714286s" repeatCount="indefinite" begin="-58.01515911413069s"></animateTransform>
  <path d="M84.717,33.597c0.791-2.503,1.186-5.138,1.186-7.773C85.903,11.594,74.308,0,60.079,0 c-9.881,0-18.445,5.534-22.793,13.702c-1.581-0.527-3.426-0.791-5.138-0.791c-9.486,0-17.128,7.642-17.128,17.128 c0,1.186,0.132,2.372,0.395,3.426C6.719,34.783,0,42.424,0,51.515C0,61.66,8.169,69.829,18.314,69.829h63.373 C91.831,69.829,100,61.66,100,51.515C99.868,42.556,93.281,35.046,84.717,33.597z" fill="#0051a2" transform="scale(0.5)"></path>
</g><g transform="translate(-100 77.10485563837977) rotate(0)">
  <animateTransform attributeName="transform" type="translate" keyTimes="0;1" values="-100 77.10485563837977;1900 77.10485563837977" dur="142.85714285714286s" repeatCount="indefinite" begin="-103.07528483391391s"></animateTransform>
  <path d="M84.717,33.597c0.791-2.503,1.186-5.138,1.186-7.773C85.903,11.594,74.308,0,60.079,0 c-9.881,0-18.445,5.534-22.793,13.702c-1.581-0.527-3.426-0.791-5.138-0.791c-9.486,0-17.128,7.642-17.128,17.128 c0,1.186,0.132,2.372,0.395,3.426C6.719,34.783,0,42.424,0,51.515C0,61.66,8.169,69.829,18.314,69.829h63.373 C91.831,69.829,100,61.66,100,51.515C99.868,42.556,93.281,35.046,84.717,33.597z" fill="#0051a2" transform="scale(0.5)"></path>
</g><g transform="translate(-100 377.1214853764596) rotate(0)">
  <animateTransform attributeName="transform" type="translate" keyTimes="0;1" values="-100 377.1214853764596;1900 377.1214853764596" dur="142.85714285714286s" repeatCount="indefinite" begin="-98.22566544170768s"></animateTransform>
  <path d="M84.717,33.597c0.791-2.503,1.186-5.138,1.186-7.773C85.903,11.594,74.308,0,60.079,0 c-9.881,0-18.445,5.534-22.793,13.702c-1.581-0.527-3.426-0.791-5.138-0.791c-9.486,0-17.128,7.642-17.128,17.128 c0,1.186,0.132,2.372,0.395,3.426C6.719,34.783,0,42.424,0,51.515C0,61.66,8.169,69.829,18.314,69.829h63.373 C91.831,69.829,100,61.66,100,51.515C99.868,42.556,93.281,35.046,84.717,33.597z" fill="#0051a2" transform="scale(0.5)"></path>
</g><g transform="translate(-100 1.6709384884593748) rotate(0)">
  <animateTransform attributeName="transform" type="translate" keyTimes="0;1" values="-100 1.6709384884593748;1900 1.6709384884593748" dur="142.85714285714286s" repeatCount="indefinite" begin="-42.66092017302059s"></animateTransform>
  <path d="M84.717,33.597c0.791-2.503,1.186-5.138,1.186-7.773C85.903,11.594,74.308,0,60.079,0 c-9.881,0-18.445,5.534-22.793,13.702c-1.581-0.527-3.426-0.791-5.138-0.791c-9.486,0-17.128,7.642-17.128,17.128 c0,1.186,0.132,2.372,0.395,3.426C6.719,34.783,0,42.424,0,51.515C0,61.66,8.169,69.829,18.314,69.829h63.373 C91.831,69.829,100,61.66,100,51.515C99.868,42.556,93.281,35.046,84.717,33.597z" fill="#0051a2" transform="scale(0.5)"></path>
</g><g transform="translate(-100 892.2402334433878) rotate(0)">
  <animateTransform attributeName="transform" type="translate" keyTimes="0;1" values="-100 892.2402334433878;1900 892.2402334433878" dur="71.42857142857143s" repeatCount="indefinite" begin="-69.65690493793012s"></animateTransform>
  <path d="M84.717,33.597c0.791-2.503,1.186-5.138,1.186-7.773C85.903,11.594,74.308,0,60.079,0 c-9.881,0-18.445,5.534-22.793,13.702c-1.581-0.527-3.426-0.791-5.138-0.791c-9.486,0-17.128,7.642-17.128,17.128 c0,1.186,0.132,2.372,0.395,3.426C6.719,34.783,0,42.424,0,51.515C0,61.66,8.169,69.829,18.314,69.829h63.373 C91.831,69.829,100,61.66,100,51.515C99.868,42.556,93.281,35.046,84.717,33.597z" fill="#1b75be" transform="scale(1)"></path>
</g><g transform="translate(-100 132.90565639112396) rotate(0)">
  <animateTransform attributeName="transform" type="translate" keyTimes="0;1" values="-100 132.90565639112396;1900 132.90565639112396" dur="71.42857142857143s" repeatCount="indefinite" begin="-95.46517500834646s"></animateTransform>
  <path d="M84.717,33.597c0.791-2.503,1.186-5.138,1.186-7.773C85.903,11.594,74.308,0,60.079,0 c-9.881,0-18.445,5.534-22.793,13.702c-1.581-0.527-3.426-0.791-5.138-0.791c-9.486,0-17.128,7.642-17.128,17.128 c0,1.186,0.132,2.372,0.395,3.426C6.719,34.783,0,42.424,0,51.515C0,61.66,8.169,69.829,18.314,69.829h63.373 C91.831,69.829,100,61.66,100,51.515C99.868,42.556,93.281,35.046,84.717,33.597z" fill="#1b75be" transform="scale(1)"></path>
</g><g transform="translate(-100 112.44338206014854) rotate(0)">
  <animateTransform attributeName="transform" type="translate" keyTimes="0;1" values="-100 112.44338206014854;1900 112.44338206014854" dur="71.42857142857143s" repeatCount="indefinite" begin="-121.72401811797678s"></animateTransform>
  <path d="M84.717,33.597c0.791-2.503,1.186-5.138,1.186-7.773C85.903,11.594,74.308,0,60.079,0 c-9.881,0-18.445,5.534-22.793,13.702c-1.581-0.527-3.426-0.791-5.138-0.791c-9.486,0-17.128,7.642-17.128,17.128 c0,1.186,0.132,2.372,0.395,3.426C6.719,34.783,0,42.424,0,51.515C0,61.66,8.169,69.829,18.314,69.829h63.373 C91.831,69.829,100,61.66,100,51.515C99.868,42.556,93.281,35.046,84.717,33.597z" fill="#1b75be" transform="scale(1)"></path>
</g><g transform="translate(-100 449.9116550000482) rotate(0)">
  <animateTransform attributeName="transform" type="translate" keyTimes="0;1" values="-100 449.9116550000482;1900 449.9116550000482" dur="71.42857142857143s" repeatCount="indefinite" begin="-30.67376618173293s"></animateTransform>
  <path d="M84.717,33.597c0.791-2.503,1.186-5.138,1.186-7.773C85.903,11.594,74.308,0,60.079,0 c-9.881,0-18.445,5.534-22.793,13.702c-1.581-0.527-3.426-0.791-5.138-0.791c-9.486,0-17.128,7.642-17.128,17.128 c0,1.186,0.132,2.372,0.395,3.426C6.719,34.783,0,42.424,0,51.515C0,61.66,8.169,69.829,18.314,69.829h63.373 C91.831,69.829,100,61.66,100,51.515C99.868,42.556,93.281,35.046,84.717,33.597z" fill="#1b75be" transform="scale(1)"></path>
</g><g transform="translate(-100 30.187126547865613) rotate(0)">
  <animateTransform attributeName="transform" type="translate" keyTimes="0;1" values="-100 30.187126547865613;1900 30.187126547865613" dur="71.42857142857143s" repeatCount="indefinite" begin="-10.01812301359165s"></animateTransform>
  <path d="M84.717,33.597c0.791-2.503,1.186-5.138,1.186-7.773C85.903,11.594,74.308,0,60.079,0 c-9.881,0-18.445,5.534-22.793,13.702c-1.581-0.527-3.426-0.791-5.138-0.791c-9.486,0-17.128,7.642-17.128,17.128 c0,1.186,0.132,2.372,0.395,3.426C6.719,34.783,0,42.424,0,51.515C0,61.66,8.169,69.829,18.314,69.829h63.373 C91.831,69.829,100,61.66,100,51.515C99.868,42.556,93.281,35.046,84.717,33.597z" fill="#1b75be" transform="scale(1)"></path>
</g><g transform="translate(-100 381.74288936892856) rotate(0)">
  <animateTransform attributeName="transform" type="translate" keyTimes="0;1" values="-100 381.74288936892856;1900 381.74288936892856" dur="47.61904761904762s" repeatCount="indefinite" begin="-115.43709153655774s"></animateTransform>
  <path d="M84.717,33.597c0.791-2.503,1.186-5.138,1.186-7.773C85.903,11.594,74.308,0,60.079,0 c-9.881,0-18.445,5.534-22.793,13.702c-1.581-0.527-3.426-0.791-5.138-0.791c-9.486,0-17.128,7.642-17.128,17.128 c0,1.186,0.132,2.372,0.395,3.426C6.719,34.783,0,42.424,0,51.515C0,61.66,8.169,69.829,18.314,69.829h63.373 C91.831,69.829,100,61.66,100,51.515C99.868,42.556,93.281,35.046,84.717,33.597z" fill="#89bff8" transform="scale(1.5)"></path>
</g><g transform="translate(-100 352.0999542502433) rotate(0)">
  <animateTransform attributeName="transform" type="translate" keyTimes="0;1" values="-100 352.0999542502433;1900 352.0999542502433" dur="47.61904761904762s" repeatCount="indefinite" begin="-129.04047944340186s"></animateTransform>
  <path d="M84.717,33.597c0.791-2.503,1.186-5.138,1.186-7.773C85.903,11.594,74.308,0,60.079,0 c-9.881,0-18.445,5.534-22.793,13.702c-1.581-0.527-3.426-0.791-5.138-0.791c-9.486,0-17.128,7.642-17.128,17.128 c0,1.186,0.132,2.372,0.395,3.426C6.719,34.783,0,42.424,0,51.515C0,61.66,8.169,69.829,18.314,69.829h63.373 C91.831,69.829,100,61.66,100,51.515C99.868,42.556,93.281,35.046,84.717,33.597z" fill="#89bff8" transform="scale(1.5)"></path>
</g><g transform="translate(-100 61.84572965626901) rotate(0)">
  <animateTransform attributeName="transform" type="translate" keyTimes="0;1" values="-100 61.84572965626901;1900 61.84572965626901" dur="47.61904761904762s" repeatCount="indefinite" begin="-32.258490382382725s"></animateTransform>
  <path d="M84.717,33.597c0.791-2.503,1.186-5.138,1.186-7.773C85.903,11.594,74.308,0,60.079,0 c-9.881,0-18.445,5.534-22.793,13.702c-1.581-0.527-3.426-0.791-5.138-0.791c-9.486,0-17.128,7.642-17.128,17.128 c0,1.186,0.132,2.372,0.395,3.426C6.719,34.783,0,42.424,0,51.515C0,61.66,8.169,69.829,18.314,69.829h63.373 C91.831,69.829,100,61.66,100,51.515C99.868,42.556,93.281,35.046,84.717,33.597z" fill="#89bff8" transform="scale(1.5)"></path>
</g><g transform="translate(-100 165.68162576732072) rotate(0)">
  <animateTransform attributeName="transform" type="translate" keyTimes="0;1" values="-100 165.68162576732072;1900 165.68162576732072" dur="47.61904761904762s" repeatCount="indefinite" begin="-28.14511301564141s"></animateTransform>
  <path d="M84.717,33.597c0.791-2.503,1.186-5.138,1.186-7.773C85.903,11.594,74.308,0,60.079,0 c-9.881,0-18.445,5.534-22.793,13.702c-1.581-0.527-3.426-0.791-5.138-0.791c-9.486,0-17.128,7.642-17.128,17.128 c0,1.186,0.132,2.372,0.395,3.426C6.719,34.783,0,42.424,0,51.515C0,61.66,8.169,69.829,18.314,69.829h63.373 C91.831,69.829,100,61.66,100,51.515C99.868,42.556,93.281,35.046,84.717,33.597z" fill="#89bff8" transform="scale(1.5)"></path>
</g><g transform="translate(-100 857.4238431785573) rotate(0)">
  <animateTransform attributeName="transform" type="translate" keyTimes="0;1" values="-100 857.4238431785573;1900 857.4238431785573" dur="47.61904761904762s" repeatCount="indefinite" begin="-63.38313246521147s"></animateTransform>
  <path d="M84.717,33.597c0.791-2.503,1.186-5.138,1.186-7.773C85.903,11.594,74.308,0,60.079,0 c-9.881,0-18.445,5.534-22.793,13.702c-1.581-0.527-3.426-0.791-5.138-0.791c-9.486,0-17.128,7.642-17.128,17.128 c0,1.186,0.132,2.372,0.395,3.426C6.719,34.783,0,42.424,0,51.515C0,61.66,8.169,69.829,18.314,69.829h63.373 C91.831,69.829,100,61.66,100,51.515C99.868,42.556,93.281,35.046,84.717,33.597z" fill="#89bff8" transform="scale(1.5)"></path>
</g><g transform="translate(-100 560.5702121415552) rotate(0)">
  <animateTransform attributeName="transform" type="translate" keyTimes="0;1" values="-100 560.5702121415552;1900 560.5702121415552" dur="35.714285714285715s" repeatCount="indefinite" begin="-79.5619385997161s"></animateTransform>
  <path d="M84.717,33.597c0.791-2.503,1.186-5.138,1.186-7.773C85.903,11.594,74.308,0,60.079,0 c-9.881,0-18.445,5.534-22.793,13.702c-1.581-0.527-3.426-0.791-5.138-0.791c-9.486,0-17.128,7.642-17.128,17.128 c0,1.186,0.132,2.372,0.395,3.426C6.719,34.783,0,42.424,0,51.515C0,61.66,8.169,69.829,18.314,69.829h63.373 C91.831,69.829,100,61.66,100,51.515C99.868,42.556,93.281,35.046,84.717,33.597z" fill="#e3f1ff" transform="scale(2)"></path>
</g><g transform="translate(-100 34.26143596929991) rotate(0)">
  <animateTransform attributeName="transform" type="translate" keyTimes="0;1" values="-100 34.26143596929991;1900 34.26143596929991" dur="35.714285714285715s" repeatCount="indefinite" begin="-4.4046818280261135s"></animateTransform>
  <path d="M84.717,33.597c0.791-2.503,1.186-5.138,1.186-7.773C85.903,11.594,74.308,0,60.079,0 c-9.881,0-18.445,5.534-22.793,13.702c-1.581-0.527-3.426-0.791-5.138-0.791c-9.486,0-17.128,7.642-17.128,17.128 c0,1.186,0.132,2.372,0.395,3.426C6.719,34.783,0,42.424,0,51.515C0,61.66,8.169,69.829,18.314,69.829h63.373 C91.831,69.829,100,61.66,100,51.515C99.868,42.556,93.281,35.046,84.717,33.597z" fill="#e3f1ff" transform="scale(2)"></path>
</g><g transform="translate(-100 898.1534912040768) rotate(0)">
  <animateTransform attributeName="transform" type="translate" keyTimes="0;1" values="-100 898.1534912040768;1900 898.1534912040768" dur="35.714285714285715s" repeatCount="indefinite" begin="-3.697175877275884s"></animateTransform>
  <path d="M84.717,33.597c0.791-2.503,1.186-5.138,1.186-7.773C85.903,11.594,74.308,0,60.079,0 c-9.881,0-18.445,5.534-22.793,13.702c-1.581-0.527-3.426-0.791-5.138-0.791c-9.486,0-17.128,7.642-17.128,17.128 c0,1.186,0.132,2.372,0.395,3.426C6.719,34.783,0,42.424,0,51.515C0,61.66,8.169,69.829,18.314,69.829h63.373 C91.831,69.829,100,61.66,100,51.515C99.868,42.556,93.281,35.046,84.717,33.597z" fill="#e3f1ff" transform="scale(2)"></path>
</g><g transform="translate(-100 248.2885041930201) rotate(0)">
  <animateTransform attributeName="transform" type="translate" keyTimes="0;1" values="-100 248.2885041930201;1900 248.2885041930201" dur="35.714285714285715s" repeatCount="indefinite" begin="-79.5728337054716s"></animateTransform>
  <path d="M84.717,33.597c0.791-2.503,1.186-5.138,1.186-7.773C85.903,11.594,74.308,0,60.079,0 c-9.881,0-18.445,5.534-22.793,13.702c-1.581-0.527-3.426-0.791-5.138-0.791c-9.486,0-17.128,7.642-17.128,17.128 c0,1.186,0.132,2.372,0.395,3.426C6.719,34.783,0,42.424,0,51.515C0,61.66,8.169,69.829,18.314,69.829h63.373 C91.831,69.829,100,61.66,100,51.515C99.868,42.556,93.281,35.046,84.717,33.597z" fill="#e3f1ff" transform="scale(2)"></path>
</g><g transform="translate(-100 246.2128916299765) rotate(0)">
  <animateTransform attributeName="transform" type="translate" keyTimes="0;1" values="-100 246.2128916299765;1900 246.2128916299765" dur="35.714285714285715s" repeatCount="indefinite" begin="-142.8527313283098s"></animateTransform>
  <path d="M84.717,33.597c0.791-2.503,1.186-5.138,1.186-7.773C85.903,11.594,74.308,0,60.079,0 c-9.881,0-18.445,5.534-22.793,13.702c-1.581-0.527-3.426-0.791-5.138-0.791c-9.486,0-17.128,7.642-17.128,17.128 c0,1.186,0.132,2.372,0.395,3.426C6.719,34.783,0,42.424,0,51.515C0,61.66,8.169,69.829,18.314,69.829h63.373 C91.831,69.829,100,61.66,100,51.515C99.868,42.556,93.281,35.046,84.717,33.597z" fill="#e3f1ff" transform="scale(2)"></path>
</g></g>
</svg>