<?xml version="1.0" encoding="utf-8"?>
<svg xmlns="http://www.w3.org/2000/svg" style="margin: auto; background: rgb(241, 242, 243); display: block; shape-rendering: auto;" width="280" height="250" preserveAspectRatio="xMidYMid">
<style type="text/css">
  text {
    text-anchor: middle; font-size: 84px; opacity: 0;
  }
</style>
<g style="transform-origin: 140px 125px; transform: scale(1.05);">
<g transform="translate(140,125) scale(2)">
  <g>
  <animateTransform attributeName="transform" type="rotate" values="0;90" keyTimes="0;1" dur="1s" repeatCount="indefinite"></animateTransform>
  <g transform="translate(-50,-50)">
  <line x1="50" y1="10" x2="50" y2="21.8" stroke-width="3" stroke="#979797" stroke-linecap="round"></line>
  <line x1="30" y1="15.4" x2="35.9" y2="25.6" stroke-width="3" stroke="#979797" stroke-linecap="round"></line>
  <line x1="15.4" y1="30" x2="25.6" y2="35.9" stroke-width="3" stroke="#979797" stroke-linecap="round"></line>
  <line x1="10" y1="50" x2="21.8" y2="50" stroke-width="3" stroke="#979797" stroke-linecap="round"></line>
  <line x1="15.4" y1="70" x2="25.6" y2="64.1" stroke-width="3" stroke="#979797" stroke-linecap="round"></line>
  <line x1="30" y1="84.6" x2="35.9" y2="74.4" stroke-width="3" stroke="#979797" stroke-linecap="round"></line>
  <line x1="50" y1="90" x2="50" y2="78.2" stroke-width="3" stroke="#979797" stroke-linecap="round"></line>
  <line x1="70" y1="84.6" x2="64.1" y2="74.4" stroke-width="3" stroke="#979797" stroke-linecap="round"></line>
  <line x1="84.6" y1="70" x2="74.4" y2="64.1" stroke-width="3" stroke="#979797" stroke-linecap="round"></line>
  <line x1="90" y1="50" x2="78.2" y2="50" stroke-width="3" stroke="#979797" stroke-linecap="round"></line>
  <line x1="84.6" y1="30" x2="74.4" y2="35.9" stroke-width="3" stroke="#979797" stroke-linecap="round"></line>
  <line x1="70" y1="15.4" x2="64.1" y2="25.6" stroke-width="3" stroke="#979797" stroke-linecap="round"></line>
</g>
  </g>
</g>

<g transform="translate(140,125)">
  <g transform="translate(0,0)"><g class="path" style="transform: scale(0.91); transform-origin: -70.48px -4.9558px; animation: 1s linear -0.5775s infinite normal forwards running breath-c89e21d4-fd47-4589-9eac-b7106b62774a;"><path d="M7.04 0.40L7.04 0.40L7.04 0.40Q4.16 0.40 4.16-3.44L4.16-3.44L4.16-32.16L4.16-32.16Q4.16-35.84 7.04-35.84L7.04-35.84L7.04-35.84Q9.84-35.84 9.84-32.16L9.84-32.16L9.84-3.44L9.84-3.44Q9.84 0.40 7.04 0.40" fill="#bdbdbd" stroke="none" stroke-width="none" transform="translate(-77.48001098632812,12.764195709228515)" style="fill: rgb(106, 106, 106);"></path></g><g class="path" style="transform: scale(0.91); transform-origin: -49.52px 0.284196px; animation: 1s linear -0.495s infinite normal forwards running breath-c89e21d4-fd47-4589-9eac-b7106b62774a;"><path d="M37.52-19.28L37.52-5.52L37.52-5.52Q37.52-2.56 35.96-1.28L35.96-1.28L35.96-1.28Q34.40 0 31.44 0L31.44 0L24.80 0L24.80 0Q18.40 0 18.40-5.52L18.40-5.52L18.40-19.36L18.40-19.36Q18.40-21.92 19.92-23.44L19.92-23.44L19.92-23.44Q21.44-24.96 24.64-24.96L24.64-24.96L31.44-24.96L31.44-24.96Q34.40-24.96 35.96-23.44L35.96-23.44L35.96-23.44Q37.52-21.92 37.52-19.28L37.52-19.28zM31.76-7.60L31.76-7.60L31.76-17.36L31.76-17.36Q31.76-22.08 28.40-22.08L28.40-22.08L27.36-22.08L27.36-22.08Q24.24-22.08 24.24-16.96L24.24-16.96L24.24-7.52L24.24-7.52Q24.24-2.72 27.44-2.72L27.44-2.72L28.64-2.72L28.64-2.72Q31.76-2.72 31.76-7.60" fill="#bdbdbd" stroke="none" stroke-width="none" transform="translate(-77.48001098632812,12.764195709228515)" style="fill: rgb(151, 151, 151);"></path></g><g class="path" style="transform: scale(0.91); transform-origin: -22.8px -1.8758px; animation: 1s linear -0.4125s infinite normal forwards running breath-c89e21d4-fd47-4589-9eac-b7106b62774a;"><path d="M55.76-26.48L55.76-26.48L48.96-26.48L48.96-26.48Q45.92-26.48 45.92-27.92L45.92-27.92L45.92-27.92Q45.92-29.28 48.80-29.28L48.80-29.28L58.32-29.28L58.32-29.28Q64.24-29.28 64.24-23.20L64.24-23.20L64.24-5.76L64.24-5.76Q64.24 0 58.32 0L58.32 0L51.60 0L51.60 0Q45.12 0 45.12-4.72L45.12-4.72L45.12-15.12L45.12-15.12Q45.12-17.12 46.64-18.36L46.64-18.36L46.64-18.36Q48.16-19.60 51.36-19.60L51.36-19.60L55.60-19.60L55.60-19.60Q58.48-19.60 58.48-22.48L58.48-22.48L58.48-23.28L58.48-23.28Q58.48-26.48 55.76-26.48zM50.80-12.96L50.80-12.96L50.80-6.88L50.80-6.88Q50.80-2.72 54.72-2.72L54.72-2.72L54.72-2.72Q58.48-2.72 58.48-6.88L58.48-6.88L58.48-12.96L58.48-12.96Q58.48-16.88 54.72-16.88L54.72-16.88L54.72-16.88Q50.80-16.88 50.80-12.96" fill="#bdbdbd" stroke="none" stroke-width="none" transform="translate(-77.48001098632812,12.764195709228515)" style="fill: rgb(189, 189, 189);"></path></g><g class="path" style="transform: scale(0.91); transform-origin: 3.87999px -5.15581px; animation: 1s linear -0.33s infinite normal forwards running breath-c89e21d4-fd47-4589-9eac-b7106b62774a;"><path d="M78.08-24.96L80.64-24.96L80.64-24.96Q85.20-24.96 85.20-29.20L85.20-29.20L85.20-31.92L85.20-31.92Q85.20-36 88-36L88-36L88-36Q90.96-36 90.96-32.32L90.96-32.32L90.96-5.28L90.96-5.28Q90.96-2.40 89.40-1.12L89.40-1.12L89.40-1.12Q87.84 0.16 84.80 0.16L84.80 0.16L78.16 0.16L78.16 0.16Q74.96 0.16 73.36-1.16L73.36-1.16L73.36-1.16Q71.76-2.48 71.76-5.52L71.76-5.52L71.84-19.52L71.84-19.52Q71.84-24.88 78.08-24.96L78.08-24.96zM77.68-17.28L77.60-7.52L77.60-7.52Q77.60-2.56 80.80-2.56L80.80-2.56L81.84-2.56L81.84-2.56Q85.20-2.56 85.20-7.44L85.20-7.44L85.20-16.88L85.20-16.88Q85.20-22.16 82.08-22.16L82.08-22.16L80.88-22.16L80.88-22.16Q77.68-22.16 77.68-17.28L77.68-17.28" fill="#bdbdbd" stroke="none" stroke-width="none" transform="translate(-77.48001098632812,12.764195709228515)" style="fill: rgb(226, 226, 226);"></path></g><g class="path" style="transform: scale(0.91); transform-origin: 24.6px -21.3158px; animation: 1s linear -0.2475s infinite normal forwards running breath-c89e21d4-fd47-4589-9eac-b7106b62774a;"><path d="M102.16-31.92L102.16-31.92L102.16-31.92Q99.12-31.92 99.12-34.08L99.12-34.08L99.12-34.08Q99.12-36.24 102.16-36.24L102.16-36.24L102.16-36.24Q105.04-36.24 105.04-34.08L105.04-34.08L105.04-34.08Q105.04-31.92 102.16-31.92" fill="#bdbdbd" stroke="none" stroke-width="none" transform="translate(-77.48001098632812,12.764195709228515)" style="fill: rgb(248, 248, 248);"></path></g><g class="path" style="transform: scale(0.91); transform-origin: 24.6px 0.524196px; animation: 1s linear -0.165s infinite normal forwards running breath-c89e21d4-fd47-4589-9eac-b7106b62774a;"><path d="M102.16 0.32L102.16 0.32L102.16 0.32Q99.20 0.32 99.20-3.36L99.20-3.36L99.20-21.04L99.20-21.04Q99.20-24.80 102.16-24.80L102.16-24.80L102.16-24.80Q104.96-24.80 104.96-21.20L104.96-21.20L104.96-3.44L104.96-3.44Q104.96 0.32 102.16 0.32" fill="#bdbdbd" stroke="none" stroke-width="none" transform="translate(-77.48001098632812,12.764195709228515)" style="fill: rgb(106, 106, 106);"></path></g><g class="path" style="transform: scale(0.91); transform-origin: 45.24px 0.444196px; animation: 1s linear -0.0825s infinite normal forwards running breath-c89e21d4-fd47-4589-9eac-b7106b62774a;"><path d="M126.56-3.92L126.56-17.60L126.56-17.60Q126.56-22.08 123.20-22.08L123.20-22.08L122.16-22.08L122.16-22.08Q118.96-22.08 118.96-17.28L118.96-17.28L118.96-3.92L118.96-3.92Q118.96 0.32 116.16 0.32L116.16 0.32L116.16 0.32Q113.12 0.32 113.12-3.36L113.12-3.36L113.12-19.36L113.12-19.36Q113.12-21.92 114.68-23.44L114.68-23.44L114.68-23.44Q116.24-24.96 119.44-24.96L119.44-24.96L126.24-24.96L126.24-24.96Q129.20-24.96 130.76-23.48L130.76-23.48L130.76-23.48Q132.32-22 132.32-19.44L132.32-19.44L132.32-3.52L132.32-3.52Q132.32 0.32 129.36 0.32L129.36 0.32L129.36 0.32Q126.56 0.32 126.56-3.92L126.56-3.92" fill="#bdbdbd" stroke="none" stroke-width="none" transform="translate(-77.48001098632812,12.764195709228515)" style="fill: rgb(151, 151, 151);"></path></g><g class="path" style="transform: scale(0.91); transform-origin: 72.08px 5.0442px; animation: 1s linear 0s infinite normal forwards running breath-c89e21d4-fd47-4589-9eac-b7106b62774a;"><path d="M142.56 6.80L150.48 6.80L150.48 6.80Q153.36 6.80 153.36 4.56L153.36 4.56L153.36 2.48L153.36 2.48Q153.36 0 150.40 0L150.40 0L146.24 0L146.24 0Q143.04 0 141.52-1.24L141.52-1.24L141.52-1.24Q140-2.48 140-5.36L140-5.36L140-19.52L140-19.52Q140-22.08 141.52-23.52L141.52-23.52L141.52-23.52Q143.04-24.96 146.24-24.96L146.24-24.96L153.04-24.96L153.04-24.96Q156-24.96 157.56-23.52L157.56-23.52L157.56-23.52Q159.12-22.08 159.12-19.52L159.12-19.52L159.12 4.08L159.12 4.08Q159.12 6.96 157.56 8.24L157.56 8.24L157.56 8.24Q156 9.52 153.12 9.52L153.12 9.52L142.48 9.52L142.48 9.52Q140 9.52 140 8.24L140 8.24L140 8.24Q140 6.80 142.56 6.80L142.56 6.80zM153.36-7.68L153.36-7.68L153.36-17.36L153.36-17.36Q153.36-22.16 150-22.16L150-22.16L148.96-22.16L148.96-22.16Q145.84-22.16 145.84-17.04L145.84-17.04L145.84-7.60L145.84-7.60Q145.84-2.72 149.04-2.72L149.04-2.72L150.24-2.72L150.24-2.72Q153.36-2.72 153.36-7.68" fill="#bdbdbd" stroke="none" stroke-width="none" transform="translate(-77.48001098632812,12.764195709228515)" style="fill: rgb(189, 189, 189);"></path></g></g>
</g>
</g>
<style id="breath-c89e21d4-fd47-4589-9eac-b7106b62774a" data-anikit="">@keyframes breath-c89e21d4-fd47-4589-9eac-b7106b62774a
{
  0% {
    animation-timing-function: cubic-bezier(0.9647,0.2413,-0.0705,0.7911);
    transform: scale(0.9099999999999999);
  }
  51% {
    animation-timing-function: cubic-bezier(0.9226,0.2631,-0.0308,0.7628);
    transform: scale(1.02994);
  }
  100% {
    transform: scale(0.9099999999999999);
  }
}</style></svg>