<?xml version="1.0" encoding="utf-8"?>
<svg xmlns="http://www.w3.org/2000/svg" xmlns:xlink="http://www.w3.org/1999/xlink" style="margin: auto; background: rgb(241, 242, 243); display: block; z-index: 1; position: relative; shape-rendering: auto;" width="1920" height="977" preserveAspectRatio="xMidYMid" viewBox="0 0 1920 977">
<g transform="translate(960,488.5) scale(1,1) translate(-960,-488.5)"><path d="M-100 569.89C-64.25 570.93 -65.77 575.04 -31.61 575.04S4 583.07 36.77 583.07S73.41 585.19 105.16 585.19S140.86 578.17 173.55 578.17S208.48 579.45 241.94 579.45S276.88 569.46 310.32 569.46S346.63 588.21 378.71 588.21S413.1 576 447.1 576S481.38 572.08 515.48 572.08S551.35 581.69 583.87 581.69S619.31 567.09 652.26 567.09S688.74 585.63 720.65 585.63S757.06 567.16 789.03 567.16S824.37 572.46 857.42 572.46S892.06 577.76 925.81 577.76S961.25 571.39 994.19 571.39S1029.78 567.13 1062.58 567.13S1098.83 585.55 1130.97 585.55S1166.89 572.6 1199.35 572.6S1235.19 579.38 1267.74 579.38S1302.14 582.85 1336.13 582.85S1372.15 584.6 1404.52 584.6S1438.8 580.27 1472.9 580.27S1509.3 589.67 1541.29 589.67S1575.89 575.68 1609.68 575.68S1646.04 567 1678.06 567S1713.24 589.59 1746.45 589.59S1781.52 583.34 1814.84 583.34S1849.04 585.73 1883.23 585.73S1919.03 581.66 1951.61 581.66S1987.61 581.1 2020 581.1S2054.83 582.57 2088.39 582.57L2020 977 L-100 977 Z" fill="#1d3f72" stroke-width="0">
  <animate attributeName="d" dur="25s" repeatCount="indefinite" values="M-100 569.89C-64.25 570.93 -65.77 575.04 -31.61 575.04S4 583.07 36.77 583.07S73.41 585.19 105.16 585.19S140.86 578.17 173.55 578.17S208.48 579.45 241.94 579.45S276.88 569.46 310.32 569.46S346.63 588.21 378.71 588.21S413.1 576 447.1 576S481.38 572.08 515.48 572.08S551.35 581.69 583.87 581.69S619.31 567.09 652.26 567.09S688.74 585.63 720.65 585.63S757.06 567.16 789.03 567.16S824.37 572.46 857.42 572.46S892.06 577.76 925.81 577.76S961.25 571.39 994.19 571.39S1029.78 567.13 1062.58 567.13S1098.83 585.55 1130.97 585.55S1166.89 572.6 1199.35 572.6S1235.19 579.38 1267.74 579.38S1302.14 582.85 1336.13 582.85S1372.15 584.6 1404.52 584.6S1438.8 580.27 1472.9 580.27S1509.3 589.67 1541.29 589.67S1575.89 575.68 1609.68 575.68S1646.04 567 1678.06 567S1713.24 589.59 1746.45 589.59S1781.52 583.34 1814.84 583.34S1849.04 585.73 1883.23 585.73S1919.03 581.66 1951.61 581.66S1987.61 581.1 2020 581.1S2054.83 582.57 2088.39 582.57L2020 977 L-100 977 Z;M-100 569.47C-64.63 580.03 -64.78 577.84 -31.61 577.84S3.44 580.86 36.77 580.86S73.03 582.18 105.16 582.18S141.28 567.52 173.55 567.52S208.7 585.53 241.94 585.53S276.72 578.69 310.32 578.69S344.59 575.52 378.71 575.52S415.16 588.35 447.1 588.35S481.71 578.56 515.48 578.56S550.33 583.07 583.87 583.07S619.4 582.94 652.26 582.94S688.24 585.83 720.65 585.83S756.52 574.65 789.03 574.65S824.58 587.21 857.42 587.21S893.95 576.37 925.81 576.37S961.74 574.63 994.19 574.63S1028.91 578.63 1062.58 578.63S1097.32 585.6 1130.97 585.6S1165.29 581.24 1199.35 581.24S1233.91 579.61 1267.74 579.61S1303.99 573.28 1336.13 573.28S1371.42 587.03 1404.52 587.03S1440.72 589.39 1472.9 589.39S1507.3 580.76 1541.29 580.76S1576.27 572.59 1609.68 572.59S1644.39 572.71 1678.06 572.71S1712.56 584.23 1746.45 584.23S1781.18 576.31 1814.84 576.31S1850.67 578.28 1883.23 578.28S1918.52 576.42 1951.61 576.42S1986.6 575.03 2020 575.03S2054.49 584.66 2088.39 584.66L2020 977 L-100 977 Z;M-100 569.89C-64.25 570.93 -65.77 575.04 -31.61 575.04S4 583.07 36.77 583.07S73.41 585.19 105.16 585.19S140.86 578.17 173.55 578.17S208.48 579.45 241.94 579.45S276.88 569.46 310.32 569.46S346.63 588.21 378.71 588.21S413.1 576 447.1 576S481.38 572.08 515.48 572.08S551.35 581.69 583.87 581.69S619.31 567.09 652.26 567.09S688.74 585.63 720.65 585.63S757.06 567.16 789.03 567.16S824.37 572.46 857.42 572.46S892.06 577.76 925.81 577.76S961.25 571.39 994.19 571.39S1029.78 567.13 1062.58 567.13S1098.83 585.55 1130.97 585.55S1166.89 572.6 1199.35 572.6S1235.19 579.38 1267.74 579.38S1302.14 582.85 1336.13 582.85S1372.15 584.6 1404.52 584.6S1438.8 580.27 1472.9 580.27S1509.3 589.67 1541.29 589.67S1575.89 575.68 1609.68 575.68S1646.04 567 1678.06 567S1713.24 589.59 1746.45 589.59S1781.52 583.34 1814.84 583.34S1849.04 585.73 1883.23 585.73S1919.03 581.66 1951.61 581.66S1987.61 581.1 2020 581.1S2054.83 582.57 2088.39 582.57L2020 977 L-100 977 Z"></animate>
  <animateTransform attributeName="transform" type="translate" dur="25s" begin="0s" repeatCount="indefinite" values="0;10;0" calcMode="spline" keySplines="0.3 0 0.7 1;0.3 0 0.7 1"></animateTransform>
</path><path d="M-100 614.57C-62.61 611.21 -63.69 600.49 -29.8 600.49S5.75 592.02 40.4 592.02S76.99 619.15 110.6 619.15S146.24 594.66 180.79 594.66S217.7 614.28 250.99 614.28S286.42 606.43 321.19 606.43S358.16 600.57 391.39 600.57S427.95 609.72 461.59 609.72S497.08 619.84 531.79 619.84S567.53 597.65 601.99 597.65S638.8 613.27 672.19 613.27S708.28 609.18 742.38 609.18S779.44 617.51 812.58 617.51S848.53 594.43 882.78 594.43S919.85 616.48 952.98 616.48S989.87 594.7 1023.18 594.7S1059.4 593.98 1093.38 593.98S1129.39 607.58 1163.58 607.58S1200.98 618.19 1233.77 618.19S1269.27 594.63 1303.97 594.63S1340.7 608.24 1374.17 608.24S1411.34 611.75 1444.37 611.75S1480.1 596.73 1514.57 596.73S1550.04 605.86 1584.77 605.86S1619.89 608.31 1654.97 608.31S1690.65 607.63 1725.17 607.63S1761.86 606.58 1795.36 606.58S1830.85 605.28 1865.56 605.28S1900.94 610.16 1935.76 610.16S1971.5 606.33 2005.96 606.33S2043.03 612.52 2076.16 612.52L2020 977 L-100 977 Z" fill="#23477b" stroke-width="0">
  <animate attributeName="d" dur="22.5s" repeatCount="indefinite" values="M-100 614.57C-62.61 611.21 -63.69 600.49 -29.8 600.49S5.75 592.02 40.4 592.02S76.99 619.15 110.6 619.15S146.24 594.66 180.79 594.66S217.7 614.28 250.99 614.28S286.42 606.43 321.19 606.43S358.16 600.57 391.39 600.57S427.95 609.72 461.59 609.72S497.08 619.84 531.79 619.84S567.53 597.65 601.99 597.65S638.8 613.27 672.19 613.27S708.28 609.18 742.38 609.18S779.44 617.51 812.58 617.51S848.53 594.43 882.78 594.43S919.85 616.48 952.98 616.48S989.87 594.7 1023.18 594.7S1059.4 593.98 1093.38 593.98S1129.39 607.58 1163.58 607.58S1200.98 618.19 1233.77 618.19S1269.27 594.63 1303.97 594.63S1340.7 608.24 1374.17 608.24S1411.34 611.75 1444.37 611.75S1480.1 596.73 1514.57 596.73S1550.04 605.86 1584.77 605.86S1619.89 608.31 1654.97 608.31S1690.65 607.63 1725.17 607.63S1761.86 606.58 1795.36 606.58S1830.85 605.28 1865.56 605.28S1900.94 610.16 1935.76 610.16S1971.5 606.33 2005.96 606.33S2043.03 612.52 2076.16 612.52L2020 977 L-100 977 Z;M-100 604.59C-62.61 600.83 -64.08 613.49 -29.8 613.49S6.82 599.7 40.4 599.7S76.7 602.65 110.6 602.65S146.3 599.66 180.79 599.66S217.23 617.09 250.99 617.09S288.07 592.46 321.19 592.46S358.09 605.74 391.39 605.74S427.31 597.78 461.59 597.78S497.29 617.39 531.79 617.39S568.09 601.3 601.99 601.3S639.2 609.28 672.19 609.28S707.74 594.84 742.38 594.84S778.37 599.35 812.58 599.35S847.7 601.44 882.78 601.44S918.51 605.3 952.98 605.3S989.67 591.16 1023.18 591.16S1058.44 608.08 1093.38 608.08S1129.83 605.4 1163.58 605.4S1200.17 601.67 1233.77 601.67S1270.97 613.71 1303.97 613.71S1339.72 600.49 1374.17 600.49S1409.66 610.61 1444.37 610.61S1481.35 606.82 1514.57 606.82S1552.06 599.03 1584.77 599.03S1621.75 602.78 1654.97 602.78S1691.94 594.33 1725.17 594.33S1760.33 610.39 1795.36 610.39S1831.87 610.97 1865.56 610.97S1902.92 599.2 1935.76 599.2S1971.57 597.25 2005.96 597.25S2042.53 617.64 2076.16 617.64L2020 977 L-100 977 Z;M-100 614.57C-62.61 611.21 -63.69 600.49 -29.8 600.49S5.75 592.02 40.4 592.02S76.99 619.15 110.6 619.15S146.24 594.66 180.79 594.66S217.7 614.28 250.99 614.28S286.42 606.43 321.19 606.43S358.16 600.57 391.39 600.57S427.95 609.72 461.59 609.72S497.08 619.84 531.79 619.84S567.53 597.65 601.99 597.65S638.8 613.27 672.19 613.27S708.28 609.18 742.38 609.18S779.44 617.51 812.58 617.51S848.53 594.43 882.78 594.43S919.85 616.48 952.98 616.48S989.87 594.7 1023.18 594.7S1059.4 593.98 1093.38 593.98S1129.39 607.58 1163.58 607.58S1200.98 618.19 1233.77 618.19S1269.27 594.63 1303.97 594.63S1340.7 608.24 1374.17 608.24S1411.34 611.75 1444.37 611.75S1480.1 596.73 1514.57 596.73S1550.04 605.86 1584.77 605.86S1619.89 608.31 1654.97 608.31S1690.65 607.63 1725.17 607.63S1761.86 606.58 1795.36 606.58S1830.85 605.28 1865.56 605.28S1900.94 610.16 1935.76 610.16S1971.5 606.33 2005.96 606.33S2043.03 612.52 2076.16 612.52L2020 977 L-100 977 Z"></animate>
  <animateTransform attributeName="transform" type="translate" dur="22.5s" begin="-2.25s" repeatCount="indefinite" values="0;10;0" calcMode="spline" keySplines="0.3 0 0.7 1;0.3 0 0.7 1"></animateTransform>
</path><path d="M-100 617.21C-63.51 627.86 -62.46 641.66 -27.89 641.66S10.53 622.27 44.22 622.27S80.85 638.3 116.33 638.3S153.86 624.3 188.44 624.3S226.69 641.26 260.54 641.26S297.9 620.76 332.65 620.76S370.62 627.66 404.76 627.66S442.64 619.89 476.87 619.89S514.05 629.64 548.98 629.64S587.14 615.86 621.09 615.86S657.88 626.91 693.2 626.91S729.61 621.88 765.31 621.88S803 644.15 837.41 644.15S873.53 628.89 909.52 628.89S947.89 643.02 981.63 643.02S1019.95 629.6 1053.74 629.6S1090.43 628.08 1125.85 628.08S1163.28 639.81 1197.96 639.81S1236.28 642.33 1270.07 642.33S1307.99 626.17 1342.18 626.17S1378.93 644.64 1414.29 644.64S1450.88 620.12 1486.39 620.12S1524.23 636.73 1558.5 636.73S1594.64 616.42 1630.61 616.42S1667.81 635.52 1702.72 635.52S1738.85 633.06 1774.83 633.06S1811.29 627.33 1846.94 627.33S1884.06 622.39 1919.05 622.39S1957.07 628.79 1991.16 628.79S2028.35 633.75 2063.27 633.75L2020 977 L-100 977 Z" fill="#285085" stroke-width="0">
  <animate attributeName="d" dur="20s" repeatCount="indefinite" values="M-100 617.21C-63.51 627.86 -62.46 641.66 -27.89 641.66S10.53 622.27 44.22 622.27S80.85 638.3 116.33 638.3S153.86 624.3 188.44 624.3S226.69 641.26 260.54 641.26S297.9 620.76 332.65 620.76S370.62 627.66 404.76 627.66S442.64 619.89 476.87 619.89S514.05 629.64 548.98 629.64S587.14 615.86 621.09 615.86S657.88 626.91 693.2 626.91S729.61 621.88 765.31 621.88S803 644.15 837.41 644.15S873.53 628.89 909.52 628.89S947.89 643.02 981.63 643.02S1019.95 629.6 1053.74 629.6S1090.43 628.08 1125.85 628.08S1163.28 639.81 1197.96 639.81S1236.28 642.33 1270.07 642.33S1307.99 626.17 1342.18 626.17S1378.93 644.64 1414.29 644.64S1450.88 620.12 1486.39 620.12S1524.23 636.73 1558.5 636.73S1594.64 616.42 1630.61 616.42S1667.81 635.52 1702.72 635.52S1738.85 633.06 1774.83 633.06S1811.29 627.33 1846.94 627.33S1884.06 622.39 1919.05 622.39S1957.07 628.79 1991.16 628.79S2028.35 633.75 2063.27 633.75L2020 977 L-100 977 Z;M-100 618.38C-62.54 635.97 -62.93 644.18 -27.89 644.18S10.04 630.36 44.22 630.36S81.33 639.58 116.33 639.58S152.57 618.91 188.44 618.91S224.64 648.84 260.54 648.84S297.89 617.47 332.65 617.47S369.67 639.01 404.76 639.01S442.82 617.22 476.87 617.22S515.06 634.47 548.98 634.47S586.64 626.96 621.09 626.96S658.45 636.69 693.2 636.69S731.54 629.6 765.31 629.6S801.64 629.16 837.41 629.16S874 616.31 909.52 616.31S947.95 641.05 981.63 641.05S1018.49 624.35 1053.74 624.35S1091.58 628.9 1125.85 628.9S1163.68 648.73 1197.96 648.73S1235.76 641.53 1270.07 641.53S1307.85 637.75 1342.18 637.75S1379.04 632.17 1414.29 632.17S1450.75 629.39 1486.39 629.39S1524.88 635.7 1558.5 635.7S1595.6 631.67 1630.61 631.67S1666.91 645.3 1702.72 645.3S1739.03 643.42 1774.83 643.42S1811.05 646.1 1846.94 646.1S1884.76 631.92 1919.05 631.92S1955.74 636.85 1991.16 636.85S2029.05 635.53 2063.27 635.53L2020 977 L-100 977 Z;M-100 617.21C-63.51 627.86 -62.46 641.66 -27.89 641.66S10.53 622.27 44.22 622.27S80.85 638.3 116.33 638.3S153.86 624.3 188.44 624.3S226.69 641.26 260.54 641.26S297.9 620.76 332.65 620.76S370.62 627.66 404.76 627.66S442.64 619.89 476.87 619.89S514.05 629.64 548.98 629.64S587.14 615.86 621.09 615.86S657.88 626.91 693.2 626.91S729.61 621.88 765.31 621.88S803 644.15 837.41 644.15S873.53 628.89 909.52 628.89S947.89 643.02 981.63 643.02S1019.95 629.6 1053.74 629.6S1090.43 628.08 1125.85 628.08S1163.28 639.81 1197.96 639.81S1236.28 642.33 1270.07 642.33S1307.99 626.17 1342.18 626.17S1378.93 644.64 1414.29 644.64S1450.88 620.12 1486.39 620.12S1524.23 636.73 1558.5 636.73S1594.64 616.42 1630.61 616.42S1667.81 635.52 1702.72 635.52S1738.85 633.06 1774.83 633.06S1811.29 627.33 1846.94 627.33S1884.06 622.39 1919.05 622.39S1957.07 628.79 1991.16 628.79S2028.35 633.75 2063.27 633.75L2020 977 L-100 977 Z"></animate>
  <animateTransform attributeName="transform" type="translate" dur="20s" begin="-4s" repeatCount="indefinite" values="0;10;0" calcMode="spline" keySplines="0.3 0 0.7 1;0.3 0 0.7 1"></animateTransform>
</path><path d="M-100 640.23C-61.13 663.53 -61.49 654.5 -25.87 654.5S12.35 677.82 48.25 677.82S86.9 675.14 122.38 675.14S161.75 640.33 196.5 640.33S234.04 666.76 270.63 666.76S309.55 643.29 344.76 643.29S382.02 674.19 418.88 674.19S456.04 649.21 493.01 649.21S531.3 655.03 567.13 655.03S606.29 653.18 641.26 653.18S678.81 677.33 715.38 677.33S754.56 661.87 789.51 661.87S827.72 663.43 863.64 663.43S902.88 656.78 937.76 656.78S975.45 670.95 1011.89 670.95S1049.7 661.14 1086.01 661.14S1124.3 671.39 1160.14 671.39S1198.31 643.8 1234.27 643.8S1273.73 655.87 1308.39 655.87S1347.76 648.79 1382.52 648.79S1420.51 657.21 1456.64 657.21S1495.42 655.91 1530.77 655.91S1569.62 676.78 1604.9 676.78S1642.2 660.47 1679.02 660.47S1717.56 678 1753.15 678S1790.72 641.52 1827.27 641.52S1864.75 670.02 1901.4 670.02S1940.81 651.71 1975.52 651.71S2014.12 677.85 2049.65 677.85L2020 977 L-100 977 Z" fill="#2e588e" stroke-width="0">
  <animate attributeName="d" dur="17.5s" repeatCount="indefinite" values="M-100 640.23C-61.13 663.53 -61.49 654.5 -25.87 654.5S12.35 677.82 48.25 677.82S86.9 675.14 122.38 675.14S161.75 640.33 196.5 640.33S234.04 666.76 270.63 666.76S309.55 643.29 344.76 643.29S382.02 674.19 418.88 674.19S456.04 649.21 493.01 649.21S531.3 655.03 567.13 655.03S606.29 653.18 641.26 653.18S678.81 677.33 715.38 677.33S754.56 661.87 789.51 661.87S827.72 663.43 863.64 663.43S902.88 656.78 937.76 656.78S975.45 670.95 1011.89 670.95S1049.7 661.14 1086.01 661.14S1124.3 671.39 1160.14 671.39S1198.31 643.8 1234.27 643.8S1273.73 655.87 1308.39 655.87S1347.76 648.79 1382.52 648.79S1420.51 657.21 1456.64 657.21S1495.42 655.91 1530.77 655.91S1569.62 676.78 1604.9 676.78S1642.2 660.47 1679.02 660.47S1717.56 678 1753.15 678S1790.72 641.52 1827.27 641.52S1864.75 670.02 1901.4 670.02S1940.81 651.71 1975.52 651.71S2014.12 677.85 2049.65 677.85L2020 977 L-100 977 Z;M-100 650.35C-60.65 651.22 -62.07 656.94 -25.87 656.94S13.5 651.84 48.25 651.84S87.62 678.82 122.38 678.82S161.04 661.81 196.5 661.81S235.48 670.61 270.63 670.61S308.13 656.79 344.76 656.79S382.4 676.18 418.88 676.18S456.83 641.21 493.01 641.21S531.7 674.52 567.13 674.52S605.47 657.52 641.26 657.52S680.23 655.02 715.38 655.02S754.75 656.31 789.51 656.31S828.53 659.94 863.64 659.94S903.1 661.18 937.76 661.18S974.92 668.36 1011.89 668.36S1050.57 653.9 1086.01 653.9S1124.85 678.36 1160.14 678.36S1198.53 651.17 1234.27 651.17S1271.88 660.31 1308.39 660.31S1346.7 649.66 1382.52 649.66S1421.67 661.2 1456.64 661.2S1494.08 662.67 1530.77 662.67S1569.87 655.87 1604.9 655.87S1642.26 663.08 1679.02 663.08S1716.54 668.79 1753.15 668.79S1792.57 662.95 1827.27 662.95S1865.24 677.55 1901.4 677.55S1939.17 643.23 1975.52 643.23S2014.65 673.06 2049.65 673.06L2020 977 L-100 977 Z;M-100 640.23C-61.13 663.53 -61.49 654.5 -25.87 654.5S12.35 677.82 48.25 677.82S86.9 675.14 122.38 675.14S161.75 640.33 196.5 640.33S234.04 666.76 270.63 666.76S309.55 643.29 344.76 643.29S382.02 674.19 418.88 674.19S456.04 649.21 493.01 649.21S531.3 655.03 567.13 655.03S606.29 653.18 641.26 653.18S678.81 677.33 715.38 677.33S754.56 661.87 789.51 661.87S827.72 663.43 863.64 663.43S902.88 656.78 937.76 656.78S975.45 670.95 1011.89 670.95S1049.7 661.14 1086.01 661.14S1124.3 671.39 1160.14 671.39S1198.31 643.8 1234.27 643.8S1273.73 655.87 1308.39 655.87S1347.76 648.79 1382.52 648.79S1420.51 657.21 1456.64 657.21S1495.42 655.91 1530.77 655.91S1569.62 676.78 1604.9 676.78S1642.2 660.47 1679.02 660.47S1717.56 678 1753.15 678S1790.72 641.52 1827.27 641.52S1864.75 670.02 1901.4 670.02S1940.81 651.71 1975.52 651.71S2014.12 677.85 2049.65 677.85L2020 977 L-100 977 Z"></animate>
  <animateTransform attributeName="transform" type="translate" dur="17.5s" begin="-5.25s" repeatCount="indefinite" values="0;10;0" calcMode="spline" keySplines="0.3 0 0.7 1;0.3 0 0.7 1"></animateTransform>
</path><path d="M-100 670.08C-60.46 666.8 -59.45 696.68 -23.74 696.68S15.04 674.16 52.52 674.16S91.18 684.85 128.78 684.85S168.86 686.47 205.04 686.47S243.21 700.42 281.29 700.42S320.78 695.58 357.55 695.58S396.95 685.54 433.81 685.54S473.38 677.07 510.07 677.07S550.35 686.7 586.33 686.7S625.07 677.04 662.59 677.04S702.72 696.65 738.85 696.65S777.5 692.35 815.11 692.35S853.67 699.51 891.37 699.51S931.22 687.39 967.63 687.39S1006.42 693.39 1043.88 693.39S1083.28 682.19 1120.14 682.19S1160.23 664.45 1196.4 664.45S1234.56 670.09 1272.66 670.09S1313.06 695.76 1348.92 695.76S1388.55 688.01 1425.18 688.01S1464.49 705.03 1501.44 705.03S1541.07 670.43 1577.7 670.43S1616.63 689.01 1653.96 689.01S1694.09 707.22 1730.22 707.22S1769.87 700.55 1806.47 700.55S1845.7 665.65 1882.73 665.65S1923.16 689.51 1958.99 689.51S1997.78 681.94 2035.25 681.94L2020 977 L-100 977 Z" fill="#346198" stroke-width="0">
  <animate attributeName="d" dur="15s" repeatCount="indefinite" values="M-100 670.08C-60.46 666.8 -59.45 696.68 -23.74 696.68S15.04 674.16 52.52 674.16S91.18 684.85 128.78 684.85S168.86 686.47 205.04 686.47S243.21 700.42 281.29 700.42S320.78 695.58 357.55 695.58S396.95 685.54 433.81 685.54S473.38 677.07 510.07 677.07S550.35 686.7 586.33 686.7S625.07 677.04 662.59 677.04S702.72 696.65 738.85 696.65S777.5 692.35 815.11 692.35S853.67 699.51 891.37 699.51S931.22 687.39 967.63 687.39S1006.42 693.39 1043.88 693.39S1083.28 682.19 1120.14 682.19S1160.23 664.45 1196.4 664.45S1234.56 670.09 1272.66 670.09S1313.06 695.76 1348.92 695.76S1388.55 688.01 1425.18 688.01S1464.49 705.03 1501.44 705.03S1541.07 670.43 1577.7 670.43S1616.63 689.01 1653.96 689.01S1694.09 707.22 1730.22 707.22S1769.87 700.55 1806.47 700.55S1845.7 665.65 1882.73 665.65S1923.16 689.51 1958.99 689.51S1997.78 681.94 2035.25 681.94L2020 977 L-100 977 Z;M-100 671.61C-60.39 674.33 -61.75 684.5 -23.74 684.5S15.42 668.83 52.52 668.83S93.05 689.39 128.78 689.39S169.06 676.1 205.04 676.1S244.96 689.64 281.29 689.64S321.15 673.64 357.55 673.64S397.01 707.77 433.81 707.77S473.02 685.36 510.07 685.36S548.28 703.92 586.33 703.92S626.45 677.6 662.59 677.6S702.68 671.9 738.85 671.9S777.36 666.18 815.11 666.18S855.32 697.25 891.37 697.25S931.35 680.2 967.63 680.2S1006.8 687.59 1043.88 687.59S1083.86 668.32 1120.14 668.32S1159 701.52 1196.4 701.52S1236.8 676.64 1272.66 676.64S1312.67 685.06 1348.92 685.06S1387.51 706.94 1425.18 706.94S1464.46 679.73 1501.44 679.73S1541.85 682.02 1577.7 682.02S1616.4 705.83 1653.96 705.83S1693 677.39 1730.22 677.39S1769.16 695.98 1806.47 695.98S1846.05 687.98 1882.73 687.98S1921.56 691.8 1958.99 691.8S1999.51 677.09 2035.25 677.09L2020 977 L-100 977 Z;M-100 670.08C-60.46 666.8 -59.45 696.68 -23.74 696.68S15.04 674.16 52.52 674.16S91.18 684.85 128.78 684.85S168.86 686.47 205.04 686.47S243.21 700.42 281.29 700.42S320.78 695.58 357.55 695.58S396.95 685.54 433.81 685.54S473.38 677.07 510.07 677.07S550.35 686.7 586.33 686.7S625.07 677.04 662.59 677.04S702.72 696.65 738.85 696.65S777.5 692.35 815.11 692.35S853.67 699.51 891.37 699.51S931.22 687.39 967.63 687.39S1006.42 693.39 1043.88 693.39S1083.28 682.19 1120.14 682.19S1160.23 664.45 1196.4 664.45S1234.56 670.09 1272.66 670.09S1313.06 695.76 1348.92 695.76S1388.55 688.01 1425.18 688.01S1464.49 705.03 1501.44 705.03S1541.07 670.43 1577.7 670.43S1616.63 689.01 1653.96 689.01S1694.09 707.22 1730.22 707.22S1769.87 700.55 1806.47 700.55S1845.7 665.65 1882.73 665.65S1923.16 689.51 1958.99 689.51S1997.78 681.94 2035.25 681.94L2020 977 L-100 977 Z"></animate>
  <animateTransform attributeName="transform" type="translate" dur="15s" begin="-6s" repeatCount="indefinite" values="0;10;0" calcMode="spline" keySplines="0.3 0 0.7 1;0.3 0 0.7 1"></animateTransform>
</path><path d="M-100 706.92C-59.12 704.9 -59.83 714.62 -21.48 714.62S19.15 694.41 57.04 694.41S98.68 716.89 135.56 716.89S174.83 696.81 214.07 696.81S254.86 731.01 292.59 731.01S332.51 703.14 371.11 703.14S411.4 729.8 449.63 729.8S490.63 699.28 528.15 699.28S567.72 723.91 606.67 723.91S647.84 702.17 685.19 702.17S726.5 721.58 763.7 721.58S804.13 698.18 842.22 698.18S883.26 714.05 920.74 714.05S960.61 694.1 999.26 694.1S1040.65 732.19 1077.78 732.19S1118.76 703.22 1156.3 703.22S1195.79 732.78 1234.81 732.78S1274.3 703.01 1313.33 703.01S1353 728.06 1391.85 728.06S1433.47 697.48 1470.37 697.48S1510.91 726.83 1548.89 726.83S1588.28 697.94 1627.41 697.94S1666.9 734.81 1705.93 734.81S1745.43 693.18 1784.44 693.18S1825.5 737.18 1862.96 737.18S1903.3 726.68 1941.48 726.68S1981.86 733.14 2020 733.14S2061.52 700.48 2098.52 700.48L2020 977 L-100 977 Z" fill="#396aa2" stroke-width="0">
  <animate attributeName="d" dur="12.5s" repeatCount="indefinite" values="M-100 706.92C-59.12 704.9 -59.83 714.62 -21.48 714.62S19.15 694.41 57.04 694.41S98.68 716.89 135.56 716.89S174.83 696.81 214.07 696.81S254.86 731.01 292.59 731.01S332.51 703.14 371.11 703.14S411.4 729.8 449.63 729.8S490.63 699.28 528.15 699.28S567.72 723.91 606.67 723.91S647.84 702.17 685.19 702.17S726.5 721.58 763.7 721.58S804.13 698.18 842.22 698.18S883.26 714.05 920.74 714.05S960.61 694.1 999.26 694.1S1040.65 732.19 1077.78 732.19S1118.76 703.22 1156.3 703.22S1195.79 732.78 1234.81 732.78S1274.3 703.01 1313.33 703.01S1353 728.06 1391.85 728.06S1433.47 697.48 1470.37 697.48S1510.91 726.83 1548.89 726.83S1588.28 697.94 1627.41 697.94S1666.9 734.81 1705.93 734.81S1745.43 693.18 1784.44 693.18S1825.5 737.18 1862.96 737.18S1903.3 726.68 1941.48 726.68S1981.86 733.14 2020 733.14S2061.52 700.48 2098.52 700.48L2020 977 L-100 977 Z;M-100 688.8C-59.04 701.18 -60.61 713.92 -21.48 713.92S18.89 712.79 57.04 712.79S97.63 724.43 135.56 724.43S175.92 720.05 214.07 720.05S254.38 725.3 292.59 725.3S333.05 701.69 371.11 701.69S411.62 724.61 449.63 724.61S491.23 689.21 528.15 689.21S568.25 736.14 606.67 736.14S647.09 697.62 685.19 697.62S726.77 711.7 763.7 711.7S804.32 712.54 842.22 712.54S883.83 724.61 920.74 724.61S961.3 695.15 999.26 695.15S1039.72 713.49 1077.78 713.49S1119.2 711.75 1156.3 711.75S1196.15 715.97 1234.81 715.97S1275.27 721.92 1313.33 721.92S1354.86 725.3 1391.85 725.3S1433.25 705.47 1470.37 705.47S1511.5 730.66 1548.89 730.66S1589.8 712.27 1627.41 712.27S1668.18 731.07 1705.93 731.07S1746.19 708.33 1784.44 708.33S1825.89 729.55 1862.96 729.55S1903.93 690.71 1941.48 690.71S1981.46 726.51 2020 726.51S2061.55 702.7 2098.52 702.7L2020 977 L-100 977 Z;M-100 706.92C-59.12 704.9 -59.83 714.62 -21.48 714.62S19.15 694.41 57.04 694.41S98.68 716.89 135.56 716.89S174.83 696.81 214.07 696.81S254.86 731.01 292.59 731.01S332.51 703.14 371.11 703.14S411.4 729.8 449.63 729.8S490.63 699.28 528.15 699.28S567.72 723.91 606.67 723.91S647.84 702.17 685.19 702.17S726.5 721.58 763.7 721.58S804.13 698.18 842.22 698.18S883.26 714.05 920.74 714.05S960.61 694.1 999.26 694.1S1040.65 732.19 1077.78 732.19S1118.76 703.22 1156.3 703.22S1195.79 732.78 1234.81 732.78S1274.3 703.01 1313.33 703.01S1353 728.06 1391.85 728.06S1433.47 697.48 1470.37 697.48S1510.91 726.83 1548.89 726.83S1588.28 697.94 1627.41 697.94S1666.9 734.81 1705.93 734.81S1745.43 693.18 1784.44 693.18S1825.5 737.18 1862.96 737.18S1903.3 726.68 1941.48 726.68S1981.86 733.14 2020 733.14S2061.52 700.48 2098.52 700.48L2020 977 L-100 977 Z"></animate>
  <animateTransform attributeName="transform" type="translate" dur="12.5s" begin="-6.25s" repeatCount="indefinite" values="0;10;0" calcMode="spline" keySplines="0.3 0 0.7 1;0.3 0 0.7 1"></animateTransform>
</path><path d="M-100 731.36C-58.74 713.51 -58.42 759.07 -19.08 759.07S21.48 729.65 61.83 729.65S102.5 745.81 142.75 745.81S184.22 727.99 223.66 727.99S265.88 762.87 304.58 762.87S346.05 734.84 385.5 734.84S427.07 752.91 466.41 752.91S508.82 713.65 547.33 713.65S589.87 744.7 628.24 744.7S671.13 718.49 709.16 718.49S752 758.12 790.08 758.12S831.38 723.89 870.99 723.89S912.15 744.43 951.91 744.43S992.82 730.19 1032.82 730.19S1073.97 751.65 1113.74 751.65S1155.99 736.36 1194.66 736.36S1236.26 729.3 1275.57 729.3S1317.25 717.46 1356.49 717.46S1399.23 754.24 1437.4 754.24S1479.2 721.13 1518.32 721.13S1560.9 744.22 1599.24 744.22S1641.94 766 1680.15 766S1722.54 744.48 1761.07 744.48S1802.17 745.8 1841.98 745.8S1884.27 744.57 1922.9 744.57S1963.53 730.37 2003.82 730.37S2046.28 748.24 2084.73 748.24L2020 977 L-100 977 Z" fill="#3f73ab" stroke-width="0">
  <animate attributeName="d" dur="10s" repeatCount="indefinite" values="M-100 731.36C-58.74 713.51 -58.42 759.07 -19.08 759.07S21.48 729.65 61.83 729.65S102.5 745.81 142.75 745.81S184.22 727.99 223.66 727.99S265.88 762.87 304.58 762.87S346.05 734.84 385.5 734.84S427.07 752.91 466.41 752.91S508.82 713.65 547.33 713.65S589.87 744.7 628.24 744.7S671.13 718.49 709.16 718.49S752 758.12 790.08 758.12S831.38 723.89 870.99 723.89S912.15 744.43 951.91 744.43S992.82 730.19 1032.82 730.19S1073.97 751.65 1113.74 751.65S1155.99 736.36 1194.66 736.36S1236.26 729.3 1275.57 729.3S1317.25 717.46 1356.49 717.46S1399.23 754.24 1437.4 754.24S1479.2 721.13 1518.32 721.13S1560.9 744.22 1599.24 744.22S1641.94 766 1680.15 766S1722.54 744.48 1761.07 744.48S1802.17 745.8 1841.98 745.8S1884.27 744.57 1922.9 744.57S1963.53 730.37 2003.82 730.37S2046.28 748.24 2084.73 748.24L2020 977 L-100 977 Z;M-100 762.77C-57.99 758.01 -57.76 743.98 -19.08 743.98S22.59 730.75 61.83 730.75S103.14 750.84 142.75 750.84S184.49 726.24 223.66 726.24S266.01 755.79 304.58 755.79S346.24 736.05 385.5 736.05S426.48 756.77 466.41 756.77S507.78 737.34 547.33 737.34S588.28 762.05 628.24 762.05S670.09 736.32 709.16 736.32S750.37 742.64 790.08 742.64S831.22 721.38 870.99 721.38S911.59 751.78 951.91 751.78S994.51 726.16 1032.82 726.16S1075.66 729.44 1113.74 729.44S1154.54 725.86 1194.66 725.86S1236.09 749.11 1275.57 749.11S1316.39 722.17 1356.49 722.17S1397.63 759.43 1437.4 759.43S1478.23 718.35 1518.32 718.35S1559.1 759.4 1599.24 759.4S1640.69 715.45 1680.15 715.45S1721.69 729.53 1761.07 729.53S1801.85 757.69 1841.98 757.69S1884.74 758.73 1922.9 758.73S1964.07 719.51 2003.82 719.51S2044.4 746.52 2084.73 746.52L2020 977 L-100 977 Z;M-100 731.36C-58.74 713.51 -58.42 759.07 -19.08 759.07S21.48 729.65 61.83 729.65S102.5 745.81 142.75 745.81S184.22 727.99 223.66 727.99S265.88 762.87 304.58 762.87S346.05 734.84 385.5 734.84S427.07 752.91 466.41 752.91S508.82 713.65 547.33 713.65S589.87 744.7 628.24 744.7S671.13 718.49 709.16 718.49S752 758.12 790.08 758.12S831.38 723.89 870.99 723.89S912.15 744.43 951.91 744.43S992.82 730.19 1032.82 730.19S1073.97 751.65 1113.74 751.65S1155.99 736.36 1194.66 736.36S1236.26 729.3 1275.57 729.3S1317.25 717.46 1356.49 717.46S1399.23 754.24 1437.4 754.24S1479.2 721.13 1518.32 721.13S1560.9 744.22 1599.24 744.22S1641.94 766 1680.15 766S1722.54 744.48 1761.07 744.48S1802.17 745.8 1841.98 745.8S1884.27 744.57 1922.9 744.57S1963.53 730.37 2003.82 730.37S2046.28 748.24 2084.73 748.24L2020 977 L-100 977 Z"></animate>
  <animateTransform attributeName="transform" type="translate" dur="10s" begin="-6s" repeatCount="indefinite" values="0;10;0" calcMode="spline" keySplines="0.3 0 0.7 1;0.3 0 0.7 1"></animateTransform>
</path><path d="M-100 749.46C-58.26 750.69 -57.45 772.67 -16.54 772.67S26.2 746.62 66.93 746.62S109.56 789.84 150.39 789.84S194.48 750 233.86 750S276.96 756.88 317.32 756.88S359.99 746.28 400.79 746.28S442.95 748.92 484.25 748.92S526.68 745.57 567.72 745.57S609.72 781.38 651.18 781.38S693.82 746.33 734.65 746.33S777.76 787.43 818.11 787.43S860.98 755.32 901.57 755.32S945.47 782.61 985.04 782.61S1028.52 747.2 1068.5 747.2S1111.36 788.72 1151.97 788.72S1195 747.21 1235.43 747.21S1277.19 741.19 1318.9 741.19S1361.35 757.62 1402.36 757.62S1444.92 779.77 1485.83 779.77S1527.75 781.07 1569.29 781.07S1612.82 775.36 1652.76 775.36S1695.47 787.49 1736.22 787.49S1779.87 775.37 1819.69 775.37S1863.13 754.72 1903.15 754.72S1946.79 787.95 1986.61 787.95S2030.72 760.54 2070.08 760.54L2020 977 L-100 977 Z" fill="#457db5" stroke-width="0">
  <animate attributeName="d" dur="7.5s" repeatCount="indefinite" values="M-100 749.46C-58.26 750.69 -57.45 772.67 -16.54 772.67S26.2 746.62 66.93 746.62S109.56 789.84 150.39 789.84S194.48 750 233.86 750S276.96 756.88 317.32 756.88S359.99 746.28 400.79 746.28S442.95 748.92 484.25 748.92S526.68 745.57 567.72 745.57S609.72 781.38 651.18 781.38S693.82 746.33 734.65 746.33S777.76 787.43 818.11 787.43S860.98 755.32 901.57 755.32S945.47 782.61 985.04 782.61S1028.52 747.2 1068.5 747.2S1111.36 788.72 1151.97 788.72S1195 747.21 1235.43 747.21S1277.19 741.19 1318.9 741.19S1361.35 757.62 1402.36 757.62S1444.92 779.77 1485.83 779.77S1527.75 781.07 1569.29 781.07S1612.82 775.36 1652.76 775.36S1695.47 787.49 1736.22 787.49S1779.87 775.37 1819.69 775.37S1863.13 754.72 1903.15 754.72S1946.79 787.95 1986.61 787.95S2030.72 760.54 2070.08 760.54L2020 977 L-100 977 Z;M-100 758.75C-56.79 744.39 -57.78 760.19 -16.54 760.19S25.33 746 66.93 746S110.09 795.02 150.39 795.02S193.47 745.39 233.86 745.39S277.82 774.28 317.32 774.28S359.83 745.74 400.79 745.74S442.78 782.18 484.25 782.18S527.31 748.7 567.72 748.7S611.37 773.69 651.18 773.69S694 744.22 734.65 744.22S778.01 777.68 818.11 777.68S860.64 775.57 901.57 775.57S945.75 777.96 985.04 777.96S1027.93 745.57 1068.5 745.57S1112 751.85 1151.97 751.85S1194.69 755.33 1235.43 755.33S1279.15 789.02 1318.9 789.02S1362.86 744.06 1402.36 744.06S1445.33 794.7 1485.83 794.7S1529.84 743.53 1569.29 743.53S1611.22 772.18 1652.76 772.18S1695.03 738.8 1736.22 738.8S1779.29 782.04 1819.69 782.04S1863.33 745.05 1903.15 745.05S1945.42 761.2 1986.61 761.2S2029.72 756.72 2070.08 756.72L2020 977 L-100 977 Z;M-100 749.46C-58.26 750.69 -57.45 772.67 -16.54 772.67S26.2 746.62 66.93 746.62S109.56 789.84 150.39 789.84S194.48 750 233.86 750S276.96 756.88 317.32 756.88S359.99 746.28 400.79 746.28S442.95 748.92 484.25 748.92S526.68 745.57 567.72 745.57S609.72 781.38 651.18 781.38S693.82 746.33 734.65 746.33S777.76 787.43 818.11 787.43S860.98 755.32 901.57 755.32S945.47 782.61 985.04 782.61S1028.52 747.2 1068.5 747.2S1111.36 788.72 1151.97 788.72S1195 747.21 1235.43 747.21S1277.19 741.19 1318.9 741.19S1361.35 757.62 1402.36 757.62S1444.92 779.77 1485.83 779.77S1527.75 781.07 1569.29 781.07S1612.82 775.36 1652.76 775.36S1695.47 787.49 1736.22 787.49S1779.87 775.37 1819.69 775.37S1863.13 754.72 1903.15 754.72S1946.79 787.95 1986.61 787.95S2030.72 760.54 2070.08 760.54L2020 977 L-100 977 Z"></animate>
  <animateTransform attributeName="transform" type="translate" dur="7.5s" begin="-5.25s" repeatCount="indefinite" values="0;10;0" calcMode="spline" keySplines="0.3 0 0.7 1;0.3 0 0.7 1"></animateTransform>
</path><path d="M-100 765.2C-56.23 772.73 -56.39 814.75 -13.82 814.75S30.47 784.39 72.36 784.39S117.48 807.8 158.54 807.8S203.51 770.47 244.72 770.47S288.12 807.26 330.89 807.26S374.64 775.8 417.07 775.8S461.33 815.17 503.25 815.17S546.5 775.54 589.43 775.54S634.29 810.98 675.61 810.98S720.86 784.53 761.79 784.53S805.4 806.99 847.97 806.99S892.09 764.66 934.15 764.66S977.95 803.49 1020.33 803.49S1065.08 783.09 1106.5 783.09S1150.16 818.81 1192.68 818.81S1237.62 776.37 1278.86 776.37S1323.78 815.11 1365.04 815.11S1408.86 807.05 1451.22 807.05S1494.44 772.6 1537.4 772.6S1581.6 775.35 1623.58 775.35S1668.67 814.26 1709.76 814.26S1754.44 804.87 1795.93 804.87S1840.79 824.35 1882.11 824.35S1926.47 774.52 1968.29 774.52S2012.62 809 2054.47 809L2020 977 L-100 977 Z" fill="#4a86bf" stroke-width="0">
  <animate attributeName="d" dur="5s" repeatCount="indefinite" values="M-100 765.2C-56.23 772.73 -56.39 814.75 -13.82 814.75S30.47 784.39 72.36 784.39S117.48 807.8 158.54 807.8S203.51 770.47 244.72 770.47S288.12 807.26 330.89 807.26S374.64 775.8 417.07 775.8S461.33 815.17 503.25 815.17S546.5 775.54 589.43 775.54S634.29 810.98 675.61 810.98S720.86 784.53 761.79 784.53S805.4 806.99 847.97 806.99S892.09 764.66 934.15 764.66S977.95 803.49 1020.33 803.49S1065.08 783.09 1106.5 783.09S1150.16 818.81 1192.68 818.81S1237.62 776.37 1278.86 776.37S1323.78 815.11 1365.04 815.11S1408.86 807.05 1451.22 807.05S1494.44 772.6 1537.4 772.6S1581.6 775.35 1623.58 775.35S1668.67 814.26 1709.76 814.26S1754.44 804.87 1795.93 804.87S1840.79 824.35 1882.11 824.35S1926.47 774.52 1968.29 774.52S2012.62 809 2054.47 809L2020 977 L-100 977 Z;M-100 764.71C-55.48 762.26 -55.97 773.91 -13.82 773.91S31.1 768.53 72.36 768.53S115.47 810.86 158.54 810.86S203.7 779.6 244.72 779.6S288.71 770.25 330.89 770.25S374.6 770.33 417.07 770.33S461.04 805.27 503.25 805.27S546.82 785.54 589.43 785.54S634.24 765.22 675.61 765.22S719.88 762.81 761.79 762.81S805.36 805.29 847.97 805.29S891.99 779.61 934.15 779.61S979.55 821.4 1020.33 821.4S1064.42 767.66 1106.5 767.66S1150 816.42 1192.68 816.42S1236.01 781.02 1278.86 781.02S1322.25 814.25 1365.04 814.25S1408.95 785.91 1451.22 785.91S1494.33 778.87 1537.4 778.87S1582.85 770.54 1623.58 770.54S1668.51 823.06 1709.76 823.06S1754.98 784.67 1795.93 784.67S1840.73 786.16 1882.11 786.16S1926.11 774.29 1968.29 774.29S2012.42 819.88 2054.47 819.88L2020 977 L-100 977 Z;M-100 765.2C-56.23 772.73 -56.39 814.75 -13.82 814.75S30.47 784.39 72.36 784.39S117.48 807.8 158.54 807.8S203.51 770.47 244.72 770.47S288.12 807.26 330.89 807.26S374.64 775.8 417.07 775.8S461.33 815.17 503.25 815.17S546.5 775.54 589.43 775.54S634.29 810.98 675.61 810.98S720.86 784.53 761.79 784.53S805.4 806.99 847.97 806.99S892.09 764.66 934.15 764.66S977.95 803.49 1020.33 803.49S1065.08 783.09 1106.5 783.09S1150.16 818.81 1192.68 818.81S1237.62 776.37 1278.86 776.37S1323.78 815.11 1365.04 815.11S1408.86 807.05 1451.22 807.05S1494.44 772.6 1537.4 772.6S1581.6 775.35 1623.58 775.35S1668.67 814.26 1709.76 814.26S1754.44 804.87 1795.93 804.87S1840.79 824.35 1882.11 824.35S1926.47 774.52 1968.29 774.52S2012.62 809 2054.47 809L2020 977 L-100 977 Z"></animate>
  <animateTransform attributeName="transform" type="translate" dur="5s" begin="-4s" repeatCount="indefinite" values="0;10;0" calcMode="spline" keySplines="0.3 0 0.7 1;0.3 0 0.7 1"></animateTransform>
</path><path d="M-100 798.24C-54.61 788.87 -55.31 837.92 -10.92 837.92S34.69 796.29 78.15 796.29S122.88 844.45 167.23 844.45S212.02 789.35 256.3 789.35S301.87 833.38 345.38 833.38S391.05 807.27 434.45 807.27S480.98 831.84 523.53 831.84S568.2 796.3 612.61 796.3S659.26 851.99 701.68 851.99S747.56 796.64 790.76 796.64S836.24 839.13 879.83 839.13S925.92 804.48 968.91 804.48S1013.7 796.72 1057.98 796.72S1103.88 790.93 1147.06 790.93S1192.35 850.1 1236.13 850.1S1281.65 793.84 1325.21 793.84S1370.44 837.74 1414.29 837.74S1459.54 794.38 1503.36 794.38S1549.13 790.46 1592.44 790.46S1638.91 795.82 1681.51 795.82S1727.68 803.32 1770.59 803.32S1816 852.86 1859.66 852.86S1906.59 840.15 1948.74 840.15S1993.84 847.5 2037.82 847.5L2020 977 L-100 977 Z" fill="#508fc8" stroke-width="0">
  <animate attributeName="d" dur="2.5s" repeatCount="indefinite" values="M-100 798.24C-54.61 788.87 -55.31 837.92 -10.92 837.92S34.69 796.29 78.15 796.29S122.88 844.45 167.23 844.45S212.02 789.35 256.3 789.35S301.87 833.38 345.38 833.38S391.05 807.27 434.45 807.27S480.98 831.84 523.53 831.84S568.2 796.3 612.61 796.3S659.26 851.99 701.68 851.99S747.56 796.64 790.76 796.64S836.24 839.13 879.83 839.13S925.92 804.48 968.91 804.48S1013.7 796.72 1057.98 796.72S1103.88 790.93 1147.06 790.93S1192.35 850.1 1236.13 850.1S1281.65 793.84 1325.21 793.84S1370.44 837.74 1414.29 837.74S1459.54 794.38 1503.36 794.38S1549.13 790.46 1592.44 790.46S1638.91 795.82 1681.51 795.82S1727.68 803.32 1770.59 803.32S1816 852.86 1859.66 852.86S1906.59 840.15 1948.74 840.15S1993.84 847.5 2037.82 847.5L2020 977 L-100 977 Z;M-100 787.98C-54.34 794.12 -53.54 852.31 -10.92 852.31S34.89 807.07 78.15 807.07S124.53 838.79 167.23 838.79S212.55 796.83 256.3 796.83S302.59 809.33 345.38 809.33S390.14 809.2 434.45 809.2S479.49 850.24 523.53 850.24S568.89 789.75 612.61 789.75S657.57 831.57 701.68 831.57S747.14 834.56 790.76 834.56S836.6 841.06 879.83 841.06S925.15 798.07 968.91 798.07S1014.39 837.39 1057.98 837.39S1103.91 810.45 1147.06 810.45S1193.85 846.74 1236.13 846.74S1280.77 789.41 1325.21 789.41S1370.01 831.14 1414.29 831.14S1459.67 796.55 1503.36 796.55S1548.47 847.1 1592.44 847.1S1639.2 792.93 1681.51 792.93S1727.55 835.66 1770.59 835.66S1816.85 843.51 1859.66 843.51S1904.38 851.75 1948.74 851.75S1994.51 791.72 2037.82 791.72L2020 977 L-100 977 Z;M-100 798.24C-54.61 788.87 -55.31 837.92 -10.92 837.92S34.69 796.29 78.15 796.29S122.88 844.45 167.23 844.45S212.02 789.35 256.3 789.35S301.87 833.38 345.38 833.38S391.05 807.27 434.45 807.27S480.98 831.84 523.53 831.84S568.2 796.3 612.61 796.3S659.26 851.99 701.68 851.99S747.56 796.64 790.76 796.64S836.24 839.13 879.83 839.13S925.92 804.48 968.91 804.48S1013.7 796.72 1057.98 796.72S1103.88 790.93 1147.06 790.93S1192.35 850.1 1236.13 850.1S1281.65 793.84 1325.21 793.84S1370.44 837.74 1414.29 837.74S1459.54 794.38 1503.36 794.38S1549.13 790.46 1592.44 790.46S1638.91 795.82 1681.51 795.82S1727.68 803.32 1770.59 803.32S1816 852.86 1859.66 852.86S1906.59 840.15 1948.74 840.15S1993.84 847.5 2037.82 847.5L2020 977 L-100 977 Z"></animate>
  <animateTransform attributeName="transform" type="translate" dur="2.5s" begin="-2.25s" repeatCount="indefinite" values="0;10;0" calcMode="spline" keySplines="0.3 0 0.7 1;0.3 0 0.7 1"></animateTransform>
</path></g>
</svg>