<?xml version="1.0" encoding="utf-8"?>
<svg xmlns="http://www.w3.org/2000/svg" xmlns:xlink="http://www.w3.org/1999/xlink" style="background: rgb(49, 194, 184); display: block; position: relative; shape-rendering: crispedges;" width="163" height="163" preserveAspectRatio="xMidYMid" viewBox="0 0 163 163"><g transform="scale(0.64)"><g>
  <line x1="197.165227002703" x2="173.40129462099898" y1="7.533657495830447" y2="31.297589877534485" stroke-width="5" stroke="#01cbe1" stroke-linecap="round"></line><line x1="197.165227002703" x2="173.40129462099898" y1="-504.4663425041696" y2="-480.7024101224655" stroke-width="5" stroke="#01cbe1" stroke-linecap="round"></line><line x1="453.165227002703" x2="429.401294620999" y1="-504.4663425041696" y2="-480.7024101224655" stroke-width="5" stroke="#01cbe1" stroke-linecap="round"></line><line x1="709.165227002703" x2="685.401294620999" y1="-504.4663425041696" y2="-480.7024101224655" stroke-width="5" stroke="#01cbe1" stroke-linecap="round"></line><line x1="197.165227002703" x2="173.40129462099898" y1="-248.46634250416955" y2="-224.70241012246552" stroke-width="5" stroke="#01cbe1" stroke-linecap="round"></line><line x1="453.165227002703" x2="429.401294620999" y1="-248.46634250416955" y2="-224.70241012246552" stroke-width="5" stroke="#01cbe1" stroke-linecap="round"></line><line x1="709.165227002703" x2="685.401294620999" y1="-248.46634250416955" y2="-224.70241012246552" stroke-width="5" stroke="#01cbe1" stroke-linecap="round"></line><line x1="197.165227002703" x2="173.40129462099898" y1="7.533657495830447" y2="31.297589877534485" stroke-width="5" stroke="#01cbe1" stroke-linecap="round"></line><line x1="453.165227002703" x2="429.401294620999" y1="7.533657495830447" y2="31.297589877534485" stroke-width="5" stroke="#01cbe1" stroke-linecap="round"></line><line x1="709.165227002703" x2="685.401294620999" y1="7.533657495830447" y2="31.297589877534485" stroke-width="5" stroke="#01cbe1" stroke-linecap="round"></line><line x1="188.8720835163716" x2="156.2609025676525" y1="230.17504949206975" y2="262.7862304407888" stroke-width="5" stroke="#01cbe1" stroke-linecap="round"></line><line x1="188.8720835163716" x2="156.2609025676525" y1="-281.8249505079302" y2="-249.2137695592112" stroke-width="5" stroke="#01cbe1" stroke-linecap="round"></line><line x1="444.8720835163716" x2="412.26090256765247" y1="-281.8249505079302" y2="-249.2137695592112" stroke-width="5" stroke="#01cbe1" stroke-linecap="round"></line><line x1="700.8720835163716" x2="668.2609025676525" y1="-281.8249505079302" y2="-249.2137695592112" stroke-width="5" stroke="#01cbe1" stroke-linecap="round"></line><line x1="188.8720835163716" x2="156.2609025676525" y1="-25.824950507930254" y2="6.786230440788813" stroke-width="5" stroke="#01cbe1" stroke-linecap="round"></line><line x1="444.8720835163716" x2="412.26090256765247" y1="-25.824950507930254" y2="6.786230440788813" stroke-width="5" stroke="#01cbe1" stroke-linecap="round"></line><line x1="700.8720835163716" x2="668.2609025676525" y1="-25.824950507930254" y2="6.786230440788813" stroke-width="5" stroke="#01cbe1" stroke-linecap="round"></line><line x1="188.8720835163716" x2="156.2609025676525" y1="230.17504949206975" y2="262.7862304407888" stroke-width="5" stroke="#01cbe1" stroke-linecap="round"></line><line x1="444.8720835163716" x2="412.26090256765247" y1="230.17504949206975" y2="262.7862304407888" stroke-width="5" stroke="#01cbe1" stroke-linecap="round"></line><line x1="700.8720835163716" x2="668.2609025676525" y1="230.17504949206975" y2="262.7862304407888" stroke-width="5" stroke="#01cbe1" stroke-linecap="round"></line><line x1="220.3473607969292" x2="212.57078853587115" y1="35.927173316020735" y2="43.7037455770788" stroke-width="5" stroke="#01cbe1" stroke-linecap="round"></line><line x1="220.3473607969292" x2="212.57078853587115" y1="-476.07282668397926" y2="-468.2962544229212" stroke-width="5" stroke="#01cbe1" stroke-linecap="round"></line><line x1="476.3473607969292" x2="468.57078853587115" y1="-476.07282668397926" y2="-468.2962544229212" stroke-width="5" stroke="#01cbe1" stroke-linecap="round"></line><line x1="732.3473607969293" x2="724.5707885358711" y1="-476.07282668397926" y2="-468.2962544229212" stroke-width="5" stroke="#01cbe1" stroke-linecap="round"></line><line x1="220.3473607969292" x2="212.57078853587115" y1="-220.07282668397926" y2="-212.2962544229212" stroke-width="5" stroke="#01cbe1" stroke-linecap="round"></line><line x1="476.3473607969292" x2="468.57078853587115" y1="-220.07282668397926" y2="-212.2962544229212" stroke-width="5" stroke="#01cbe1" stroke-linecap="round"></line><line x1="732.3473607969293" x2="724.5707885358711" y1="-220.07282668397926" y2="-212.2962544229212" stroke-width="5" stroke="#01cbe1" stroke-linecap="round"></line><line x1="220.3473607969292" x2="212.57078853587115" y1="35.927173316020735" y2="43.7037455770788" stroke-width="5" stroke="#01cbe1" stroke-linecap="round"></line><line x1="476.3473607969292" x2="468.57078853587115" y1="35.927173316020735" y2="43.7037455770788" stroke-width="5" stroke="#01cbe1" stroke-linecap="round"></line><line x1="732.3473607969293" x2="724.5707885358711" y1="35.927173316020735" y2="43.7037455770788" stroke-width="5" stroke="#01cbe1" stroke-linecap="round"></line><line x1="242.61539731902235" x2="207.42550713165974" y1="52.183207184704145" y2="87.37309737206675" stroke-width="5" stroke="#01cbe1" stroke-linecap="round"></line><line x1="242.61539731902235" x2="207.42550713165974" y1="-459.81679281529586" y2="-424.62690262793325" stroke-width="5" stroke="#01cbe1" stroke-linecap="round"></line><line x1="498.61539731902235" x2="463.42550713165974" y1="-459.81679281529586" y2="-424.62690262793325" stroke-width="5" stroke="#01cbe1" stroke-linecap="round"></line><line x1="754.6153973190223" x2="719.4255071316597" y1="-459.81679281529586" y2="-424.62690262793325" stroke-width="5" stroke="#01cbe1" stroke-linecap="round"></line><line x1="242.61539731902235" x2="207.42550713165974" y1="-203.81679281529586" y2="-168.62690262793325" stroke-width="5" stroke="#01cbe1" stroke-linecap="round"></line><line x1="498.61539731902235" x2="463.42550713165974" y1="-203.81679281529586" y2="-168.62690262793325" stroke-width="5" stroke="#01cbe1" stroke-linecap="round"></line><line x1="754.6153973190223" x2="719.4255071316597" y1="-203.81679281529586" y2="-168.62690262793325" stroke-width="5" stroke="#01cbe1" stroke-linecap="round"></line><line x1="242.61539731902235" x2="207.42550713165974" y1="52.183207184704145" y2="87.37309737206675" stroke-width="5" stroke="#01cbe1" stroke-linecap="round"></line><line x1="498.61539731902235" x2="463.42550713165974" y1="52.183207184704145" y2="87.37309737206675" stroke-width="5" stroke="#01cbe1" stroke-linecap="round"></line><line x1="754.6153973190223" x2="719.4255071316597" y1="52.183207184704145" y2="87.37309737206675" stroke-width="5" stroke="#01cbe1" stroke-linecap="round"></line><line x1="229.2235010062646" x2="205.5548468138481" y1="200.80396480570784" y2="224.47261899812435" stroke-width="5" stroke="#01cbe1" stroke-linecap="round"></line><line x1="229.2235010062646" x2="205.5548468138481" y1="-311.19603519429216" y2="-287.52738100187565" stroke-width="5" stroke="#01cbe1" stroke-linecap="round"></line><line x1="485.2235010062646" x2="461.5548468138481" y1="-311.19603519429216" y2="-287.52738100187565" stroke-width="5" stroke="#01cbe1" stroke-linecap="round"></line><line x1="741.2235010062645" x2="717.5548468138481" y1="-311.19603519429216" y2="-287.52738100187565" stroke-width="5" stroke="#01cbe1" stroke-linecap="round"></line><line x1="229.2235010062646" x2="205.5548468138481" y1="-55.196035194292165" y2="-31.527381001875654" stroke-width="5" stroke="#01cbe1" stroke-linecap="round"></line><line x1="485.2235010062646" x2="461.5548468138481" y1="-55.196035194292165" y2="-31.527381001875654" stroke-width="5" stroke="#01cbe1" stroke-linecap="round"></line><line x1="741.2235010062645" x2="717.5548468138481" y1="-55.196035194292165" y2="-31.527381001875654" stroke-width="5" stroke="#01cbe1" stroke-linecap="round"></line><line x1="229.2235010062646" x2="205.5548468138481" y1="200.80396480570784" y2="224.47261899812435" stroke-width="5" stroke="#01cbe1" stroke-linecap="round"></line><line x1="485.2235010062646" x2="461.5548468138481" y1="200.80396480570784" y2="224.47261899812435" stroke-width="5" stroke="#01cbe1" stroke-linecap="round"></line><line x1="741.2235010062645" x2="717.5548468138481" y1="200.80396480570784" y2="224.47261899812435" stroke-width="5" stroke="#01cbe1" stroke-linecap="round"></line><line x1="215.54237386648626" x2="199.64736436331887" y1="11.152122922737508" y2="27.047132425904888" stroke-width="5" stroke="#01cbe1" stroke-linecap="round"></line><line x1="215.54237386648626" x2="199.64736436331887" y1="-500.84787707726247" y2="-484.95286757409514" stroke-width="5" stroke="#01cbe1" stroke-linecap="round"></line><line x1="471.5423738664863" x2="455.64736436331884" y1="-500.84787707726247" y2="-484.95286757409514" stroke-width="5" stroke="#01cbe1" stroke-linecap="round"></line><line x1="727.5423738664863" x2="711.6473643633188" y1="-500.84787707726247" y2="-484.95286757409514" stroke-width="5" stroke="#01cbe1" stroke-linecap="round"></line><line x1="215.54237386648626" x2="199.64736436331887" y1="-244.8478770772625" y2="-228.9528675740951" stroke-width="5" stroke="#01cbe1" stroke-linecap="round"></line><line x1="471.5423738664863" x2="455.64736436331884" y1="-244.8478770772625" y2="-228.9528675740951" stroke-width="5" stroke="#01cbe1" stroke-linecap="round"></line><line x1="727.5423738664863" x2="711.6473643633188" y1="-244.8478770772625" y2="-228.9528675740951" stroke-width="5" stroke="#01cbe1" stroke-linecap="round"></line><line x1="215.54237386648626" x2="199.64736436331887" y1="11.152122922737508" y2="27.047132425904888" stroke-width="5" stroke="#01cbe1" stroke-linecap="round"></line><line x1="471.5423738664863" x2="455.64736436331884" y1="11.152122922737508" y2="27.047132425904888" stroke-width="5" stroke="#01cbe1" stroke-linecap="round"></line><line x1="727.5423738664863" x2="711.6473643633188" y1="11.152122922737508" y2="27.047132425904888" stroke-width="5" stroke="#01cbe1" stroke-linecap="round"></line><line x1="47.986253450529155" x2="20.83103140747027" y1="142.67962575072596" y2="169.83484779378483" stroke-width="5" stroke="#01cbe1" stroke-linecap="round"></line><line x1="47.986253450529155" x2="20.83103140747027" y1="-369.32037424927404" y2="-342.16515220621517" stroke-width="5" stroke="#01cbe1" stroke-linecap="round"></line><line x1="303.98625345052915" x2="276.8310314074703" y1="-369.32037424927404" y2="-342.16515220621517" stroke-width="5" stroke="#01cbe1" stroke-linecap="round"></line><line x1="559.9862534505291" x2="532.8310314074703" y1="-369.32037424927404" y2="-342.16515220621517" stroke-width="5" stroke="#01cbe1" stroke-linecap="round"></line><line x1="47.986253450529155" x2="20.83103140747027" y1="-113.32037424927404" y2="-86.16515220621517" stroke-width="5" stroke="#01cbe1" stroke-linecap="round"></line><line x1="303.98625345052915" x2="276.8310314074703" y1="-113.32037424927404" y2="-86.16515220621517" stroke-width="5" stroke="#01cbe1" stroke-linecap="round"></line><line x1="559.9862534505291" x2="532.8310314074703" y1="-113.32037424927404" y2="-86.16515220621517" stroke-width="5" stroke="#01cbe1" stroke-linecap="round"></line><line x1="47.986253450529155" x2="20.83103140747027" y1="142.67962575072596" y2="169.83484779378483" stroke-width="5" stroke="#01cbe1" stroke-linecap="round"></line><line x1="303.98625345052915" x2="276.8310314074703" y1="142.67962575072596" y2="169.83484779378483" stroke-width="5" stroke="#01cbe1" stroke-linecap="round"></line><line x1="559.9862534505291" x2="532.8310314074703" y1="142.67962575072596" y2="169.83484779378483" stroke-width="5" stroke="#01cbe1" stroke-linecap="round"></line><line x1="214.96421222866948" x2="175.55636977964375" y1="207.99636130167718" y2="247.40420375070292" stroke-width="5" stroke="#01cbe1" stroke-linecap="round"></line><line x1="214.96421222866948" x2="175.55636977964375" y1="-304.0036386983228" y2="-264.5957962492971" stroke-width="5" stroke="#01cbe1" stroke-linecap="round"></line><line x1="470.96421222866945" x2="431.5563697796438" y1="-304.0036386983228" y2="-264.5957962492971" stroke-width="5" stroke="#01cbe1" stroke-linecap="round"></line><line x1="726.9642122286695" x2="687.5563697796438" y1="-304.0036386983228" y2="-264.5957962492971" stroke-width="5" stroke="#01cbe1" stroke-linecap="round"></line><line x1="214.96421222866948" x2="175.55636977964375" y1="-48.00363869832282" y2="-8.59579624929708" stroke-width="5" stroke="#01cbe1" stroke-linecap="round"></line><line x1="470.96421222866945" x2="431.5563697796438" y1="-48.00363869832282" y2="-8.59579624929708" stroke-width="5" stroke="#01cbe1" stroke-linecap="round"></line><line x1="726.9642122286695" x2="687.5563697796438" y1="-48.00363869832282" y2="-8.59579624929708" stroke-width="5" stroke="#01cbe1" stroke-linecap="round"></line><line x1="214.96421222866948" x2="175.55636977964375" y1="207.99636130167718" y2="247.40420375070292" stroke-width="5" stroke="#01cbe1" stroke-linecap="round"></line><line x1="470.96421222866945" x2="431.5563697796438" y1="207.99636130167718" y2="247.40420375070292" stroke-width="5" stroke="#01cbe1" stroke-linecap="round"></line><line x1="726.9642122286695" x2="687.5563697796438" y1="207.99636130167718" y2="247.40420375070292" stroke-width="5" stroke="#01cbe1" stroke-linecap="round"></line><line x1="109.09546676910912" x2="78.0384451044817" y1="181.30468436034317" y2="212.3617060249706" stroke-width="5" stroke="#01cbe1" stroke-linecap="round"></line><line x1="109.09546676910912" x2="78.0384451044817" y1="-330.6953156396568" y2="-299.6382939750294" stroke-width="5" stroke="#01cbe1" stroke-linecap="round"></line><line x1="365.0954667691091" x2="334.0384451044817" y1="-330.6953156396568" y2="-299.6382939750294" stroke-width="5" stroke="#01cbe1" stroke-linecap="round"></line><line x1="621.0954667691092" x2="590.0384451044818" y1="-330.6953156396568" y2="-299.6382939750294" stroke-width="5" stroke="#01cbe1" stroke-linecap="round"></line><line x1="109.09546676910912" x2="78.0384451044817" y1="-74.69531563965683" y2="-43.6382939750294" stroke-width="5" stroke="#01cbe1" stroke-linecap="round"></line><line x1="365.0954667691091" x2="334.0384451044817" y1="-74.69531563965683" y2="-43.6382939750294" stroke-width="5" stroke="#01cbe1" stroke-linecap="round"></line><line x1="621.0954667691092" x2="590.0384451044818" y1="-74.69531563965683" y2="-43.6382939750294" stroke-width="5" stroke="#01cbe1" stroke-linecap="round"></line><line x1="109.09546676910912" x2="78.0384451044817" y1="181.30468436034317" y2="212.3617060249706" stroke-width="5" stroke="#01cbe1" stroke-linecap="round"></line><line x1="365.0954667691091" x2="334.0384451044817" y1="181.30468436034317" y2="212.3617060249706" stroke-width="5" stroke="#01cbe1" stroke-linecap="round"></line><line x1="621.0954667691092" x2="590.0384451044818" y1="181.30468436034317" y2="212.3617060249706" stroke-width="5" stroke="#01cbe1" stroke-linecap="round"></line><line x1="24.079429671983103" x2="8.450859343200495" y1="209.56445464565823" y2="225.19302497444082" stroke-width="5" stroke="#01cbe1" stroke-linecap="round"></line><line x1="24.079429671983103" x2="8.450859343200495" y1="-302.4355453543418" y2="-286.80697502555915" stroke-width="5" stroke="#01cbe1" stroke-linecap="round"></line><line x1="280.0794296719831" x2="264.4508593432005" y1="-302.4355453543418" y2="-286.80697502555915" stroke-width="5" stroke="#01cbe1" stroke-linecap="round"></line><line x1="536.0794296719831" x2="520.4508593432005" y1="-302.4355453543418" y2="-286.80697502555915" stroke-width="5" stroke="#01cbe1" stroke-linecap="round"></line><line x1="24.079429671983103" x2="8.450859343200495" y1="-46.43554535434177" y2="-30.806975025559183" stroke-width="5" stroke="#01cbe1" stroke-linecap="round"></line><line x1="280.0794296719831" x2="264.4508593432005" y1="-46.43554535434177" y2="-30.806975025559183" stroke-width="5" stroke="#01cbe1" stroke-linecap="round"></line><line x1="536.0794296719831" x2="520.4508593432005" y1="-46.43554535434177" y2="-30.806975025559183" stroke-width="5" stroke="#01cbe1" stroke-linecap="round"></line><line x1="24.079429671983103" x2="8.450859343200495" y1="209.56445464565823" y2="225.19302497444082" stroke-width="5" stroke="#01cbe1" stroke-linecap="round"></line><line x1="280.0794296719831" x2="264.4508593432005" y1="209.56445464565823" y2="225.19302497444082" stroke-width="5" stroke="#01cbe1" stroke-linecap="round"></line><line x1="536.0794296719831" x2="520.4508593432005" y1="209.56445464565823" y2="225.19302497444082" stroke-width="5" stroke="#01cbe1" stroke-linecap="round"></line>
  <animateTransform attributeName="transform" type="translate" values="0 0;-256 256" keyTimes="0;1" repeatCount="indefinite" dur="50s"></animateTransform>
</g><g>
  <line x1="88.91555172861396" x2="55.218885370775105" y1="122.36944171854631" y2="156.06610807638518" stroke-width="5" stroke="#38e0f5" stroke-linecap="round"></line><line x1="88.91555172861396" x2="55.218885370775105" y1="-389.63055828145366" y2="-355.93389192361485" stroke-width="5" stroke="#38e0f5" stroke-linecap="round"></line><line x1="344.915551728614" x2="311.2188853707751" y1="-389.63055828145366" y2="-355.93389192361485" stroke-width="5" stroke="#38e0f5" stroke-linecap="round"></line><line x1="600.915551728614" x2="567.2188853707751" y1="-389.63055828145366" y2="-355.93389192361485" stroke-width="5" stroke="#38e0f5" stroke-linecap="round"></line><line x1="88.91555172861396" x2="55.218885370775105" y1="-133.6305582814537" y2="-99.93389192361482" stroke-width="5" stroke="#38e0f5" stroke-linecap="round"></line><line x1="344.915551728614" x2="311.2188853707751" y1="-133.6305582814537" y2="-99.93389192361482" stroke-width="5" stroke="#38e0f5" stroke-linecap="round"></line><line x1="600.915551728614" x2="567.2188853707751" y1="-133.6305582814537" y2="-99.93389192361482" stroke-width="5" stroke="#38e0f5" stroke-linecap="round"></line><line x1="88.91555172861396" x2="55.218885370775105" y1="122.36944171854631" y2="156.06610807638518" stroke-width="5" stroke="#38e0f5" stroke-linecap="round"></line><line x1="344.915551728614" x2="311.2188853707751" y1="122.36944171854631" y2="156.06610807638518" stroke-width="5" stroke="#38e0f5" stroke-linecap="round"></line><line x1="600.915551728614" x2="567.2188853707751" y1="122.36944171854631" y2="156.06610807638518" stroke-width="5" stroke="#38e0f5" stroke-linecap="round"></line><line x1="74.3597812455376" x2="38.06297270118323" y1="44.453185635655004" y2="80.74999418000938" stroke-width="5" stroke="#38e0f5" stroke-linecap="round"></line><line x1="74.3597812455376" x2="38.06297270118323" y1="-467.546814364345" y2="-431.25000581999063" stroke-width="5" stroke="#38e0f5" stroke-linecap="round"></line><line x1="330.3597812455376" x2="294.06297270118324" y1="-467.546814364345" y2="-431.25000581999063" stroke-width="5" stroke="#38e0f5" stroke-linecap="round"></line><line x1="586.3597812455376" x2="550.0629727011832" y1="-467.546814364345" y2="-431.25000581999063" stroke-width="5" stroke="#38e0f5" stroke-linecap="round"></line><line x1="74.3597812455376" x2="38.06297270118323" y1="-211.54681436434498" y2="-175.25000581999063" stroke-width="5" stroke="#38e0f5" stroke-linecap="round"></line><line x1="330.3597812455376" x2="294.06297270118324" y1="-211.54681436434498" y2="-175.25000581999063" stroke-width="5" stroke="#38e0f5" stroke-linecap="round"></line><line x1="586.3597812455376" x2="550.0629727011832" y1="-211.54681436434498" y2="-175.25000581999063" stroke-width="5" stroke="#38e0f5" stroke-linecap="round"></line><line x1="74.3597812455376" x2="38.06297270118323" y1="44.453185635655004" y2="80.74999418000938" stroke-width="5" stroke="#38e0f5" stroke-linecap="round"></line><line x1="330.3597812455376" x2="294.06297270118324" y1="44.453185635655004" y2="80.74999418000938" stroke-width="5" stroke="#38e0f5" stroke-linecap="round"></line><line x1="586.3597812455376" x2="550.0629727011832" y1="44.453185635655004" y2="80.74999418000938" stroke-width="5" stroke="#38e0f5" stroke-linecap="round"></line><line x1="55.46293878049649" x2="20.201235574546594" y1="90.78310629204199" y2="126.0448094979919" stroke-width="5" stroke="#38e0f5" stroke-linecap="round"></line><line x1="55.46293878049649" x2="20.201235574546594" y1="-421.216893707958" y2="-385.9551905020081" stroke-width="5" stroke="#38e0f5" stroke-linecap="round"></line><line x1="311.4629387804965" x2="276.2012355745466" y1="-421.216893707958" y2="-385.9551905020081" stroke-width="5" stroke="#38e0f5" stroke-linecap="round"></line><line x1="567.4629387804965" x2="532.2012355745466" y1="-421.216893707958" y2="-385.9551905020081" stroke-width="5" stroke="#38e0f5" stroke-linecap="round"></line><line x1="55.46293878049649" x2="20.201235574546594" y1="-165.216893707958" y2="-129.9551905020081" stroke-width="5" stroke="#38e0f5" stroke-linecap="round"></line><line x1="311.4629387804965" x2="276.2012355745466" y1="-165.216893707958" y2="-129.9551905020081" stroke-width="5" stroke="#38e0f5" stroke-linecap="round"></line><line x1="567.4629387804965" x2="532.2012355745466" y1="-165.216893707958" y2="-129.9551905020081" stroke-width="5" stroke="#38e0f5" stroke-linecap="round"></line><line x1="55.46293878049649" x2="20.201235574546594" y1="90.78310629204199" y2="126.0448094979919" stroke-width="5" stroke="#38e0f5" stroke-linecap="round"></line><line x1="311.4629387804965" x2="276.2012355745466" y1="90.78310629204199" y2="126.0448094979919" stroke-width="5" stroke="#38e0f5" stroke-linecap="round"></line><line x1="567.4629387804965" x2="532.2012355745466" y1="90.78310629204199" y2="126.0448094979919" stroke-width="5" stroke="#38e0f5" stroke-linecap="round"></line><line x1="202.38912443673527" x2="184.93467086067247" y1="119.7157073384291" y2="137.1701609144919" stroke-width="5" stroke="#38e0f5" stroke-linecap="round"></line><line x1="202.38912443673527" x2="184.93467086067247" y1="-392.28429266157093" y2="-374.82983908550807" stroke-width="5" stroke="#38e0f5" stroke-linecap="round"></line><line x1="458.3891244367353" x2="440.93467086067244" y1="-392.28429266157093" y2="-374.82983908550807" stroke-width="5" stroke="#38e0f5" stroke-linecap="round"></line><line x1="714.3891244367353" x2="696.9346708606724" y1="-392.28429266157093" y2="-374.82983908550807" stroke-width="5" stroke="#38e0f5" stroke-linecap="round"></line><line x1="202.38912443673527" x2="184.93467086067247" y1="-136.2842926615709" y2="-118.8298390855081" stroke-width="5" stroke="#38e0f5" stroke-linecap="round"></line><line x1="458.3891244367353" x2="440.93467086067244" y1="-136.2842926615709" y2="-118.8298390855081" stroke-width="5" stroke="#38e0f5" stroke-linecap="round"></line><line x1="714.3891244367353" x2="696.9346708606724" y1="-136.2842926615709" y2="-118.8298390855081" stroke-width="5" stroke="#38e0f5" stroke-linecap="round"></line><line x1="202.38912443673527" x2="184.93467086067247" y1="119.7157073384291" y2="137.1701609144919" stroke-width="5" stroke="#38e0f5" stroke-linecap="round"></line><line x1="458.3891244367353" x2="440.93467086067244" y1="119.7157073384291" y2="137.1701609144919" stroke-width="5" stroke="#38e0f5" stroke-linecap="round"></line><line x1="714.3891244367353" x2="696.9346708606724" y1="119.7157073384291" y2="137.1701609144919" stroke-width="5" stroke="#38e0f5" stroke-linecap="round"></line><line x1="64.91812127997405" x2="25.791628981073885" y1="28.844801055159124" y2="67.97129335405928" stroke-width="5" stroke="#38e0f5" stroke-linecap="round"></line><line x1="64.91812127997405" x2="25.791628981073885" y1="-483.1551989448409" y2="-444.0287066459407" stroke-width="5" stroke="#38e0f5" stroke-linecap="round"></line><line x1="320.91812127997406" x2="281.79162898107387" y1="-483.1551989448409" y2="-444.0287066459407" stroke-width="5" stroke="#38e0f5" stroke-linecap="round"></line><line x1="576.918121279974" x2="537.7916289810739" y1="-483.1551989448409" y2="-444.0287066459407" stroke-width="5" stroke="#38e0f5" stroke-linecap="round"></line><line x1="64.91812127997405" x2="25.791628981073885" y1="-227.1551989448409" y2="-188.0287066459407" stroke-width="5" stroke="#38e0f5" stroke-linecap="round"></line><line x1="320.91812127997406" x2="281.79162898107387" y1="-227.1551989448409" y2="-188.0287066459407" stroke-width="5" stroke="#38e0f5" stroke-linecap="round"></line><line x1="576.918121279974" x2="537.7916289810739" y1="-227.1551989448409" y2="-188.0287066459407" stroke-width="5" stroke="#38e0f5" stroke-linecap="round"></line><line x1="64.91812127997405" x2="25.791628981073885" y1="28.844801055159124" y2="67.97129335405928" stroke-width="5" stroke="#38e0f5" stroke-linecap="round"></line><line x1="320.91812127997406" x2="281.79162898107387" y1="28.844801055159124" y2="67.97129335405928" stroke-width="5" stroke="#38e0f5" stroke-linecap="round"></line><line x1="576.918121279974" x2="537.7916289810739" y1="28.844801055159124" y2="67.97129335405928" stroke-width="5" stroke="#38e0f5" stroke-linecap="round"></line><line x1="132.6008321538603" x2="119.46021451358504" y1="99.90076765229944" y2="113.04138529257469" stroke-width="5" stroke="#38e0f5" stroke-linecap="round"></line><line x1="132.6008321538603" x2="119.46021451358504" y1="-412.09923234770054" y2="-398.95861470742534" stroke-width="5" stroke="#38e0f5" stroke-linecap="round"></line><line x1="388.6008321538603" x2="375.460214513585" y1="-412.09923234770054" y2="-398.95861470742534" stroke-width="5" stroke="#38e0f5" stroke-linecap="round"></line><line x1="644.6008321538603" x2="631.460214513585" y1="-412.09923234770054" y2="-398.95861470742534" stroke-width="5" stroke="#38e0f5" stroke-linecap="round"></line><line x1="132.6008321538603" x2="119.46021451358504" y1="-156.09923234770056" y2="-142.9586147074253" stroke-width="5" stroke="#38e0f5" stroke-linecap="round"></line><line x1="388.6008321538603" x2="375.460214513585" y1="-156.09923234770056" y2="-142.9586147074253" stroke-width="5" stroke="#38e0f5" stroke-linecap="round"></line><line x1="644.6008321538603" x2="631.460214513585" y1="-156.09923234770056" y2="-142.9586147074253" stroke-width="5" stroke="#38e0f5" stroke-linecap="round"></line><line x1="132.6008321538603" x2="119.46021451358504" y1="99.90076765229944" y2="113.04138529257469" stroke-width="5" stroke="#38e0f5" stroke-linecap="round"></line><line x1="388.6008321538603" x2="375.460214513585" y1="99.90076765229944" y2="113.04138529257469" stroke-width="5" stroke="#38e0f5" stroke-linecap="round"></line><line x1="644.6008321538603" x2="631.460214513585" y1="99.90076765229944" y2="113.04138529257469" stroke-width="5" stroke="#38e0f5" stroke-linecap="round"></line><line x1="257.03188453871246" x2="226.24797457130944" y1="75.62925689748853" y2="106.41316686489152" stroke-width="5" stroke="#38e0f5" stroke-linecap="round"></line><line x1="257.03188453871246" x2="226.24797457130944" y1="-436.3707431025115" y2="-405.58683313510846" stroke-width="5" stroke="#38e0f5" stroke-linecap="round"></line><line x1="513.0318845387125" x2="482.24797457130944" y1="-436.3707431025115" y2="-405.58683313510846" stroke-width="5" stroke="#38e0f5" stroke-linecap="round"></line><line x1="769.0318845387125" x2="738.2479745713094" y1="-436.3707431025115" y2="-405.58683313510846" stroke-width="5" stroke="#38e0f5" stroke-linecap="round"></line><line x1="257.03188453871246" x2="226.24797457130944" y1="-180.37074310251148" y2="-149.58683313510846" stroke-width="5" stroke="#38e0f5" stroke-linecap="round"></line><line x1="513.0318845387125" x2="482.24797457130944" y1="-180.37074310251148" y2="-149.58683313510846" stroke-width="5" stroke="#38e0f5" stroke-linecap="round"></line><line x1="769.0318845387125" x2="738.2479745713094" y1="-180.37074310251148" y2="-149.58683313510846" stroke-width="5" stroke="#38e0f5" stroke-linecap="round"></line><line x1="257.03188453871246" x2="226.24797457130944" y1="75.62925689748853" y2="106.41316686489152" stroke-width="5" stroke="#38e0f5" stroke-linecap="round"></line><line x1="513.0318845387125" x2="482.24797457130944" y1="75.62925689748853" y2="106.41316686489152" stroke-width="5" stroke="#38e0f5" stroke-linecap="round"></line><line x1="769.0318845387125" x2="738.2479745713094" y1="75.62925689748853" y2="106.41316686489152" stroke-width="5" stroke="#38e0f5" stroke-linecap="round"></line><line x1="1.031884538712461" x2="-29.75202542869056" y1="75.62925689748853" y2="106.41316686489152" stroke-width="5" stroke="#38e0f5" stroke-linecap="round"></line><line x1="216.6168866413134" x2="180.0154076929592" y1="198.37015840918414" y2="234.97163735753836" stroke-width="5" stroke="#38e0f5" stroke-linecap="round"></line><line x1="216.6168866413134" x2="180.0154076929592" y1="-313.6298415908159" y2="-277.0283626424616" stroke-width="5" stroke="#38e0f5" stroke-linecap="round"></line><line x1="472.6168866413134" x2="436.01540769295923" y1="-313.6298415908159" y2="-277.0283626424616" stroke-width="5" stroke="#38e0f5" stroke-linecap="round"></line><line x1="728.6168866413134" x2="692.0154076929592" y1="-313.6298415908159" y2="-277.0283626424616" stroke-width="5" stroke="#38e0f5" stroke-linecap="round"></line><line x1="216.6168866413134" x2="180.0154076929592" y1="-57.62984159081586" y2="-21.028362642461644" stroke-width="5" stroke="#38e0f5" stroke-linecap="round"></line><line x1="472.6168866413134" x2="436.01540769295923" y1="-57.62984159081586" y2="-21.028362642461644" stroke-width="5" stroke="#38e0f5" stroke-linecap="round"></line><line x1="728.6168866413134" x2="692.0154076929592" y1="-57.62984159081586" y2="-21.028362642461644" stroke-width="5" stroke="#38e0f5" stroke-linecap="round"></line><line x1="216.6168866413134" x2="180.0154076929592" y1="198.37015840918414" y2="234.97163735753836" stroke-width="5" stroke="#38e0f5" stroke-linecap="round"></line><line x1="472.6168866413134" x2="436.01540769295923" y1="198.37015840918414" y2="234.97163735753836" stroke-width="5" stroke="#38e0f5" stroke-linecap="round"></line><line x1="728.6168866413134" x2="692.0154076929592" y1="198.37015840918414" y2="234.97163735753836" stroke-width="5" stroke="#38e0f5" stroke-linecap="round"></line><line x1="132.4338717874407" x2="122.17723533027527" y1="241.6764475637288" y2="251.93308402089423" stroke-width="5" stroke="#38e0f5" stroke-linecap="round"></line><line x1="132.4338717874407" x2="122.17723533027527" y1="-270.3235524362712" y2="-260.0669159791058" stroke-width="5" stroke="#38e0f5" stroke-linecap="round"></line><line x1="388.4338717874407" x2="378.17723533027527" y1="-270.3235524362712" y2="-260.0669159791058" stroke-width="5" stroke="#38e0f5" stroke-linecap="round"></line><line x1="644.4338717874407" x2="634.1772353302753" y1="-270.3235524362712" y2="-260.0669159791058" stroke-width="5" stroke="#38e0f5" stroke-linecap="round"></line><line x1="132.4338717874407" x2="122.17723533027527" y1="-14.3235524362712" y2="-4.066915979105772" stroke-width="5" stroke="#38e0f5" stroke-linecap="round"></line><line x1="388.4338717874407" x2="378.17723533027527" y1="-14.3235524362712" y2="-4.066915979105772" stroke-width="5" stroke="#38e0f5" stroke-linecap="round"></line><line x1="644.4338717874407" x2="634.1772353302753" y1="-14.3235524362712" y2="-4.066915979105772" stroke-width="5" stroke="#38e0f5" stroke-linecap="round"></line><line x1="132.4338717874407" x2="122.17723533027527" y1="241.6764475637288" y2="251.93308402089423" stroke-width="5" stroke="#38e0f5" stroke-linecap="round"></line><line x1="388.4338717874407" x2="378.17723533027527" y1="241.6764475637288" y2="251.93308402089423" stroke-width="5" stroke="#38e0f5" stroke-linecap="round"></line><line x1="644.4338717874407" x2="634.1772353302753" y1="241.6764475637288" y2="251.93308402089423" stroke-width="5" stroke="#38e0f5" stroke-linecap="round"></line><line x1="194.08223986609673" x2="177.69455116129998" y1="206.99127982092617" y2="223.3789685257229" stroke-width="5" stroke="#38e0f5" stroke-linecap="round"></line><line x1="194.08223986609673" x2="177.69455116129998" y1="-305.00872017907386" y2="-288.62103147427706" stroke-width="5" stroke="#38e0f5" stroke-linecap="round"></line><line x1="450.08223986609676" x2="433.69455116129996" y1="-305.00872017907386" y2="-288.62103147427706" stroke-width="5" stroke="#38e0f5" stroke-linecap="round"></line><line x1="706.0822398660968" x2="689.6945511613" y1="-305.00872017907386" y2="-288.62103147427706" stroke-width="5" stroke="#38e0f5" stroke-linecap="round"></line><line x1="194.08223986609673" x2="177.69455116129998" y1="-49.00872017907383" y2="-32.62103147427709" stroke-width="5" stroke="#38e0f5" stroke-linecap="round"></line><line x1="450.08223986609676" x2="433.69455116129996" y1="-49.00872017907383" y2="-32.62103147427709" stroke-width="5" stroke="#38e0f5" stroke-linecap="round"></line><line x1="706.0822398660968" x2="689.6945511613" y1="-49.00872017907383" y2="-32.62103147427709" stroke-width="5" stroke="#38e0f5" stroke-linecap="round"></line><line x1="194.08223986609673" x2="177.69455116129998" y1="206.99127982092617" y2="223.3789685257229" stroke-width="5" stroke="#38e0f5" stroke-linecap="round"></line><line x1="450.08223986609676" x2="433.69455116129996" y1="206.99127982092617" y2="223.3789685257229" stroke-width="5" stroke="#38e0f5" stroke-linecap="round"></line><line x1="706.0822398660968" x2="689.6945511613" y1="206.99127982092617" y2="223.3789685257229" stroke-width="5" stroke="#38e0f5" stroke-linecap="round"></line>
  <animateTransform attributeName="transform" type="translate" values="0 0;-256 256" keyTimes="0;1" repeatCount="indefinite" dur="25s"></animateTransform>
</g><g>
  <line x1="264.6090431123945" x2="240.62120145021515" y1="16.944506575115255" y2="40.93234823729462" stroke-width="5" stroke="#a9f0f9" stroke-linecap="round"></line><line x1="264.6090431123945" x2="240.62120145021515" y1="-495.05549342488473" y2="-471.0676517627054" stroke-width="5" stroke="#a9f0f9" stroke-linecap="round"></line><line x1="520.6090431123945" x2="496.62120145021515" y1="-495.05549342488473" y2="-471.0676517627054" stroke-width="5" stroke="#a9f0f9" stroke-linecap="round"></line><line x1="776.6090431123945" x2="752.6212014502152" y1="-495.05549342488473" y2="-471.0676517627054" stroke-width="5" stroke="#a9f0f9" stroke-linecap="round"></line><line x1="264.6090431123945" x2="240.62120145021515" y1="-239.05549342488473" y2="-215.0676517627054" stroke-width="5" stroke="#a9f0f9" stroke-linecap="round"></line><line x1="520.6090431123945" x2="496.62120145021515" y1="-239.05549342488473" y2="-215.0676517627054" stroke-width="5" stroke="#a9f0f9" stroke-linecap="round"></line><line x1="776.6090431123945" x2="752.6212014502152" y1="-239.05549342488473" y2="-215.0676517627054" stroke-width="5" stroke="#a9f0f9" stroke-linecap="round"></line><line x1="264.6090431123945" x2="240.62120145021515" y1="16.944506575115255" y2="40.93234823729462" stroke-width="5" stroke="#a9f0f9" stroke-linecap="round"></line><line x1="520.6090431123945" x2="496.62120145021515" y1="16.944506575115255" y2="40.93234823729462" stroke-width="5" stroke="#a9f0f9" stroke-linecap="round"></line><line x1="776.6090431123945" x2="752.6212014502152" y1="16.944506575115255" y2="40.93234823729462" stroke-width="5" stroke="#a9f0f9" stroke-linecap="round"></line><line x1="8.609043112394488" x2="-15.378798549784847" y1="16.944506575115255" y2="40.93234823729462" stroke-width="5" stroke="#a9f0f9" stroke-linecap="round"></line><line x1="188.21937147613713" x2="150.69368551308693" y1="166.42767784616527" y2="203.95336380921546" stroke-width="5" stroke="#a9f0f9" stroke-linecap="round"></line><line x1="188.21937147613713" x2="150.69368551308693" y1="-345.57232215383476" y2="-308.0466361907845" stroke-width="5" stroke="#a9f0f9" stroke-linecap="round"></line><line x1="444.2193714761371" x2="406.69368551308696" y1="-345.57232215383476" y2="-308.0466361907845" stroke-width="5" stroke="#a9f0f9" stroke-linecap="round"></line><line x1="700.2193714761371" x2="662.693685513087" y1="-345.57232215383476" y2="-308.0466361907845" stroke-width="5" stroke="#a9f0f9" stroke-linecap="round"></line><line x1="188.21937147613713" x2="150.69368551308693" y1="-89.57232215383473" y2="-52.04663619078454" stroke-width="5" stroke="#a9f0f9" stroke-linecap="round"></line><line x1="444.2193714761371" x2="406.69368551308696" y1="-89.57232215383473" y2="-52.04663619078454" stroke-width="5" stroke="#a9f0f9" stroke-linecap="round"></line><line x1="700.2193714761371" x2="662.693685513087" y1="-89.57232215383473" y2="-52.04663619078454" stroke-width="5" stroke="#a9f0f9" stroke-linecap="round"></line><line x1="188.21937147613713" x2="150.69368551308693" y1="166.42767784616527" y2="203.95336380921546" stroke-width="5" stroke="#a9f0f9" stroke-linecap="round"></line><line x1="444.2193714761371" x2="406.69368551308696" y1="166.42767784616527" y2="203.95336380921546" stroke-width="5" stroke="#a9f0f9" stroke-linecap="round"></line><line x1="700.2193714761371" x2="662.693685513087" y1="166.42767784616527" y2="203.95336380921546" stroke-width="5" stroke="#a9f0f9" stroke-linecap="round"></line><line x1="199.62701857151416" x2="176.22432965749346" y1="47.26529960905857" y2="70.66798852307925" stroke-width="5" stroke="#a9f0f9" stroke-linecap="round"></line><line x1="199.62701857151416" x2="176.22432965749346" y1="-464.73470039094144" y2="-441.33201147692074" stroke-width="5" stroke="#a9f0f9" stroke-linecap="round"></line><line x1="455.62701857151416" x2="432.22432965749346" y1="-464.73470039094144" y2="-441.33201147692074" stroke-width="5" stroke="#a9f0f9" stroke-linecap="round"></line><line x1="711.6270185715141" x2="688.2243296574934" y1="-464.73470039094144" y2="-441.33201147692074" stroke-width="5" stroke="#a9f0f9" stroke-linecap="round"></line><line x1="199.62701857151416" x2="176.22432965749346" y1="-208.73470039094144" y2="-185.33201147692074" stroke-width="5" stroke="#a9f0f9" stroke-linecap="round"></line><line x1="455.62701857151416" x2="432.22432965749346" y1="-208.73470039094144" y2="-185.33201147692074" stroke-width="5" stroke="#a9f0f9" stroke-linecap="round"></line><line x1="711.6270185715141" x2="688.2243296574934" y1="-208.73470039094144" y2="-185.33201147692074" stroke-width="5" stroke="#a9f0f9" stroke-linecap="round"></line><line x1="199.62701857151416" x2="176.22432965749346" y1="47.26529960905857" y2="70.66798852307925" stroke-width="5" stroke="#a9f0f9" stroke-linecap="round"></line><line x1="455.62701857151416" x2="432.22432965749346" y1="47.26529960905857" y2="70.66798852307925" stroke-width="5" stroke="#a9f0f9" stroke-linecap="round"></line><line x1="711.6270185715141" x2="688.2243296574934" y1="47.26529960905857" y2="70.66798852307925" stroke-width="5" stroke="#a9f0f9" stroke-linecap="round"></line><line x1="70.60563788835279" x2="33.90807520148215" y1="27.689395689466863" y2="64.3869583763375" stroke-width="5" stroke="#a9f0f9" stroke-linecap="round"></line><line x1="70.60563788835279" x2="33.90807520148215" y1="-484.3106043105331" y2="-447.6130416236625" stroke-width="5" stroke="#a9f0f9" stroke-linecap="round"></line><line x1="326.6056378883528" x2="289.9080752014821" y1="-484.3106043105331" y2="-447.6130416236625" stroke-width="5" stroke="#a9f0f9" stroke-linecap="round"></line><line x1="582.6056378883528" x2="545.9080752014821" y1="-484.3106043105331" y2="-447.6130416236625" stroke-width="5" stroke="#a9f0f9" stroke-linecap="round"></line><line x1="70.60563788835279" x2="33.90807520148215" y1="-228.31060431053314" y2="-191.6130416236625" stroke-width="5" stroke="#a9f0f9" stroke-linecap="round"></line><line x1="326.6056378883528" x2="289.9080752014821" y1="-228.31060431053314" y2="-191.6130416236625" stroke-width="5" stroke="#a9f0f9" stroke-linecap="round"></line><line x1="582.6056378883528" x2="545.9080752014821" y1="-228.31060431053314" y2="-191.6130416236625" stroke-width="5" stroke="#a9f0f9" stroke-linecap="round"></line><line x1="70.60563788835279" x2="33.90807520148215" y1="27.689395689466863" y2="64.3869583763375" stroke-width="5" stroke="#a9f0f9" stroke-linecap="round"></line><line x1="326.6056378883528" x2="289.9080752014821" y1="27.689395689466863" y2="64.3869583763375" stroke-width="5" stroke="#a9f0f9" stroke-linecap="round"></line><line x1="582.6056378883528" x2="545.9080752014821" y1="27.689395689466863" y2="64.3869583763375" stroke-width="5" stroke="#a9f0f9" stroke-linecap="round"></line><line x1="94.26851593678185" x2="65.01073404741845" y1="119.36987010897047" y2="148.62765199833387" stroke-width="5" stroke="#a9f0f9" stroke-linecap="round"></line><line x1="94.26851593678185" x2="65.01073404741845" y1="-392.6301298910295" y2="-363.3723480016661" stroke-width="5" stroke="#a9f0f9" stroke-linecap="round"></line><line x1="350.26851593678185" x2="321.01073404741845" y1="-392.6301298910295" y2="-363.3723480016661" stroke-width="5" stroke="#a9f0f9" stroke-linecap="round"></line><line x1="606.2685159367818" x2="577.0107340474185" y1="-392.6301298910295" y2="-363.3723480016661" stroke-width="5" stroke="#a9f0f9" stroke-linecap="round"></line><line x1="94.26851593678185" x2="65.01073404741845" y1="-136.63012989102953" y2="-107.37234800166613" stroke-width="5" stroke="#a9f0f9" stroke-linecap="round"></line><line x1="350.26851593678185" x2="321.01073404741845" y1="-136.63012989102953" y2="-107.37234800166613" stroke-width="5" stroke="#a9f0f9" stroke-linecap="round"></line><line x1="606.2685159367818" x2="577.0107340474185" y1="-136.63012989102953" y2="-107.37234800166613" stroke-width="5" stroke="#a9f0f9" stroke-linecap="round"></line><line x1="94.26851593678185" x2="65.01073404741845" y1="119.36987010897047" y2="148.62765199833387" stroke-width="5" stroke="#a9f0f9" stroke-linecap="round"></line><line x1="350.26851593678185" x2="321.01073404741845" y1="119.36987010897047" y2="148.62765199833387" stroke-width="5" stroke="#a9f0f9" stroke-linecap="round"></line><line x1="606.2685159367818" x2="577.0107340474185" y1="119.36987010897047" y2="148.62765199833387" stroke-width="5" stroke="#a9f0f9" stroke-linecap="round"></line><line x1="229.9465397591814" x2="197.05936953113383" y1="70.28326109315009" y2="103.17043132119767" stroke-width="5" stroke="#a9f0f9" stroke-linecap="round"></line><line x1="229.9465397591814" x2="197.05936953113383" y1="-441.7167389068499" y2="-408.82956867880233" stroke-width="5" stroke="#a9f0f9" stroke-linecap="round"></line><line x1="485.9465397591814" x2="453.0593695311338" y1="-441.7167389068499" y2="-408.82956867880233" stroke-width="5" stroke="#a9f0f9" stroke-linecap="round"></line><line x1="741.9465397591814" x2="709.0593695311338" y1="-441.7167389068499" y2="-408.82956867880233" stroke-width="5" stroke="#a9f0f9" stroke-linecap="round"></line><line x1="229.9465397591814" x2="197.05936953113383" y1="-185.7167389068499" y2="-152.82956867880233" stroke-width="5" stroke="#a9f0f9" stroke-linecap="round"></line><line x1="485.9465397591814" x2="453.0593695311338" y1="-185.7167389068499" y2="-152.82956867880233" stroke-width="5" stroke="#a9f0f9" stroke-linecap="round"></line><line x1="741.9465397591814" x2="709.0593695311338" y1="-185.7167389068499" y2="-152.82956867880233" stroke-width="5" stroke="#a9f0f9" stroke-linecap="round"></line><line x1="229.9465397591814" x2="197.05936953113383" y1="70.28326109315009" y2="103.17043132119767" stroke-width="5" stroke="#a9f0f9" stroke-linecap="round"></line><line x1="485.9465397591814" x2="453.0593695311338" y1="70.28326109315009" y2="103.17043132119767" stroke-width="5" stroke="#a9f0f9" stroke-linecap="round"></line><line x1="741.9465397591814" x2="709.0593695311338" y1="70.28326109315009" y2="103.17043132119767" stroke-width="5" stroke="#a9f0f9" stroke-linecap="round"></line><line x1="224.79057857499055" x2="196.25285667865825" y1="106.05731256720196" y2="134.59503446353426" stroke-width="5" stroke="#01cbe1" stroke-linecap="round"></line><line x1="224.79057857499055" x2="196.25285667865825" y1="-405.94268743279804" y2="-377.40496553646574" stroke-width="5" stroke="#01cbe1" stroke-linecap="round"></line><line x1="480.79057857499055" x2="452.25285667865825" y1="-405.94268743279804" y2="-377.40496553646574" stroke-width="5" stroke="#01cbe1" stroke-linecap="round"></line><line x1="736.7905785749906" x2="708.2528566786582" y1="-405.94268743279804" y2="-377.40496553646574" stroke-width="5" stroke="#01cbe1" stroke-linecap="round"></line><line x1="224.79057857499055" x2="196.25285667865825" y1="-149.94268743279804" y2="-121.40496553646574" stroke-width="5" stroke="#01cbe1" stroke-linecap="round"></line><line x1="480.79057857499055" x2="452.25285667865825" y1="-149.94268743279804" y2="-121.40496553646574" stroke-width="5" stroke="#01cbe1" stroke-linecap="round"></line><line x1="736.7905785749906" x2="708.2528566786582" y1="-149.94268743279804" y2="-121.40496553646574" stroke-width="5" stroke="#01cbe1" stroke-linecap="round"></line><line x1="224.79057857499055" x2="196.25285667865825" y1="106.05731256720196" y2="134.59503446353426" stroke-width="5" stroke="#01cbe1" stroke-linecap="round"></line><line x1="480.79057857499055" x2="452.25285667865825" y1="106.05731256720196" y2="134.59503446353426" stroke-width="5" stroke="#01cbe1" stroke-linecap="round"></line><line x1="736.7905785749906" x2="708.2528566786582" y1="106.05731256720196" y2="134.59503446353426" stroke-width="5" stroke="#01cbe1" stroke-linecap="round"></line><line x1="195.59196214340506" x2="163.13065244223827" y1="185.01131138447994" y2="217.47262108564672" stroke-width="5" stroke="#a9f0f9" stroke-linecap="round"></line><line x1="195.59196214340506" x2="163.13065244223827" y1="-326.98868861552006" y2="-294.5273789143533" stroke-width="5" stroke="#a9f0f9" stroke-linecap="round"></line><line x1="451.59196214340506" x2="419.1306524422383" y1="-326.98868861552006" y2="-294.5273789143533" stroke-width="5" stroke="#a9f0f9" stroke-linecap="round"></line><line x1="707.591962143405" x2="675.1306524422382" y1="-326.98868861552006" y2="-294.5273789143533" stroke-width="5" stroke="#a9f0f9" stroke-linecap="round"></line><line x1="195.59196214340506" x2="163.13065244223827" y1="-70.98868861552006" y2="-38.52737891435328" stroke-width="5" stroke="#a9f0f9" stroke-linecap="round"></line><line x1="451.59196214340506" x2="419.1306524422383" y1="-70.98868861552006" y2="-38.52737891435328" stroke-width="5" stroke="#a9f0f9" stroke-linecap="round"></line><line x1="707.591962143405" x2="675.1306524422382" y1="-70.98868861552006" y2="-38.52737891435328" stroke-width="5" stroke="#a9f0f9" stroke-linecap="round"></line><line x1="195.59196214340506" x2="163.13065244223827" y1="185.01131138447994" y2="217.47262108564672" stroke-width="5" stroke="#a9f0f9" stroke-linecap="round"></line><line x1="451.59196214340506" x2="419.1306524422383" y1="185.01131138447994" y2="217.47262108564672" stroke-width="5" stroke="#a9f0f9" stroke-linecap="round"></line><line x1="707.591962143405" x2="675.1306524422382" y1="185.01131138447994" y2="217.47262108564672" stroke-width="5" stroke="#a9f0f9" stroke-linecap="round"></line><line x1="123.83245319643696" x2="105.9451337175823" y1="70.99620267879568" y2="88.88352215765035" stroke-width="5" stroke="#a9f0f9" stroke-linecap="round"></line><line x1="123.83245319643696" x2="105.9451337175823" y1="-441.00379732120433" y2="-423.11647784234964" stroke-width="5" stroke="#a9f0f9" stroke-linecap="round"></line><line x1="379.832453196437" x2="361.9451337175823" y1="-441.00379732120433" y2="-423.11647784234964" stroke-width="5" stroke="#a9f0f9" stroke-linecap="round"></line><line x1="635.832453196437" x2="617.9451337175823" y1="-441.00379732120433" y2="-423.11647784234964" stroke-width="5" stroke="#a9f0f9" stroke-linecap="round"></line><line x1="123.83245319643696" x2="105.9451337175823" y1="-185.00379732120433" y2="-167.11647784234964" stroke-width="5" stroke="#a9f0f9" stroke-linecap="round"></line><line x1="379.832453196437" x2="361.9451337175823" y1="-185.00379732120433" y2="-167.11647784234964" stroke-width="5" stroke="#a9f0f9" stroke-linecap="round"></line><line x1="635.832453196437" x2="617.9451337175823" y1="-185.00379732120433" y2="-167.11647784234964" stroke-width="5" stroke="#a9f0f9" stroke-linecap="round"></line><line x1="123.83245319643696" x2="105.9451337175823" y1="70.99620267879568" y2="88.88352215765035" stroke-width="5" stroke="#a9f0f9" stroke-linecap="round"></line><line x1="379.832453196437" x2="361.9451337175823" y1="70.99620267879568" y2="88.88352215765035" stroke-width="5" stroke="#a9f0f9" stroke-linecap="round"></line><line x1="635.832453196437" x2="617.9451337175823" y1="70.99620267879568" y2="88.88352215765035" stroke-width="5" stroke="#a9f0f9" stroke-linecap="round"></line><line x1="217.28004315509722" x2="187.5453935341143" y1="3.522427618485283" y2="33.25707723946822" stroke-width="5" stroke="#a9f0f9" stroke-linecap="round"></line><line x1="217.28004315509722" x2="187.5453935341143" y1="-508.47757238151473" y2="-478.74292276053177" stroke-width="5" stroke="#a9f0f9" stroke-linecap="round"></line><line x1="473.28004315509725" x2="443.5453935341143" y1="-508.47757238151473" y2="-478.74292276053177" stroke-width="5" stroke="#a9f0f9" stroke-linecap="round"></line><line x1="729.2800431550972" x2="699.5453935341143" y1="-508.47757238151473" y2="-478.74292276053177" stroke-width="5" stroke="#a9f0f9" stroke-linecap="round"></line><line x1="217.28004315509722" x2="187.5453935341143" y1="-252.4775723815147" y2="-222.74292276053177" stroke-width="5" stroke="#a9f0f9" stroke-linecap="round"></line><line x1="473.28004315509725" x2="443.5453935341143" y1="-252.4775723815147" y2="-222.74292276053177" stroke-width="5" stroke="#a9f0f9" stroke-linecap="round"></line><line x1="729.2800431550972" x2="699.5453935341143" y1="-252.4775723815147" y2="-222.74292276053177" stroke-width="5" stroke="#a9f0f9" stroke-linecap="round"></line><line x1="217.28004315509722" x2="187.5453935341143" y1="3.522427618485283" y2="33.25707723946822" stroke-width="5" stroke="#a9f0f9" stroke-linecap="round"></line><line x1="473.28004315509725" x2="443.5453935341143" y1="3.522427618485283" y2="33.25707723946822" stroke-width="5" stroke="#a9f0f9" stroke-linecap="round"></line><line x1="729.2800431550972" x2="699.5453935341143" y1="3.522427618485283" y2="33.25707723946822" stroke-width="5" stroke="#a9f0f9" stroke-linecap="round"></line>
  <animateTransform attributeName="transform" type="translate" values="0 0;-256 256" keyTimes="0;1" repeatCount="indefinite" dur="16.666666666666668s"></animateTransform>
</g></g></svg>